<?xml version="1.0" encoding="UTF-8"?>
<svg version="1.1" xmlns="http://www.w3.org/2000/svg" width="720" height="365">
<path d="M0 0 C0.983896 -0.00445668 0.983896 -0.00445668 1.98766869 -0.0090034 C4.18386465 -0.01766953 6.38000596 -0.01919687 8.57621765 -0.02069092 C10.15163794 -0.02532055 11.72705711 -0.03034541 13.30247498 -0.03573608 C17.58149685 -0.04884767 21.86050304 -0.05530256 26.13954186 -0.05974674 C28.81374526 -0.06267933 31.48794438 -0.06678449 34.16214561 -0.07125092 C42.53159258 -0.08492227 50.90102977 -0.09459083 59.27048713 -0.09845281 C68.9272952 -0.1029335 78.58396173 -0.1204834 88.24072677 -0.1494534 C95.70837389 -0.1710775 103.1759812 -0.18115747 110.64365929 -0.18249393 C115.10233166 -0.18354139 119.5608709 -0.18943671 124.01951027 -0.20731354 C128.21464107 -0.22380693 132.40953885 -0.22594362 136.60469055 -0.21717453 C138.14175224 -0.21640485 139.67882652 -0.22073784 141.21585655 -0.23063278 C143.31979846 -0.24337974 145.42291841 -0.2374615 147.52685547 -0.22705078 C148.70247701 -0.22851734 149.87809855 -0.2299839 151.08934498 -0.2314949 C155.15627457 0.21808589 157.81776627 1.27909156 161.4539032 3.14044189 C162.79303565 5.8187068 162.60323986 7.90459439 162.63090515 10.90362549 C162.650158 12.71593155 162.650158 12.71593155 162.6697998 14.56484985 C162.67718674 15.8762796 162.68457367 17.18770935 162.69218445 18.53887939 C162.69625998 19.20503895 162.7003355 19.8711985 162.70453453 20.55754471 C162.72539084 24.0828953 162.73969487 27.60820702 162.74906921 31.13360596 C162.76013807 34.77444729 162.79454351 38.41467816 162.83424091 42.05530357 C162.86038641 44.85544979 162.86875909 47.65545001 162.87235069 50.45570755 C162.87958849 52.44994045 162.90603526 54.44407363 162.93273926 56.43814087 C162.92835091 58.25990341 162.92835091 58.25990341 162.9238739 60.11846924 C162.92974014 61.18721283 162.93560638 62.25595642 162.94165039 63.35708618 C162.33090314 66.84234836 161.20932118 67.98765653 158.4539032 70.14044189 C154.89793202 71.32576562 151.89006184 71.41903722 148.1414032 71.51544189 C146.19814148 71.58891846 146.19814148 71.58891846 144.21562195 71.66387939 C140.4539032 71.14044189 140.4539032 71.14044189 134.4539032 66.14044189 C134.4539032 53.27044189 134.4539032 40.40044189 134.4539032 27.14044189 C105.7439032 27.14044189 77.0339032 27.14044189 47.4539032 27.14044189 C47.9489032 29.12044189 47.9489032 29.12044189 48.4539032 31.14044189 C48.54031518 33.09560488 48.57161036 35.05349193 48.56742859 37.01055908 C48.56731529 38.78194244 48.56731529 38.78194244 48.56719971 40.58911133 C48.56203842 41.85901917 48.55687714 43.128927 48.55155945 44.43731689 C48.5501445 45.74122375 48.54872955 47.04513062 48.54727173 48.3885498 C48.54346187 51.84747245 48.53364471 55.3063528 48.52256775 58.76525879 C48.51232066 62.29786598 48.50771219 65.83048025 48.50273132 69.36309814 C48.49255228 76.28891669 48.47297676 83.21461925 48.4539032 90.14044189 C60.9939032 90.14044189 73.5339032 90.14044189 86.4539032 90.14044189 C86.37501119 83.73841351 86.37501119 83.73841351 86.27372742 77.33673096 C86.2687323 76.53461182 86.26373718 75.73249268 86.2585907 74.90606689 C86.24811707 74.08912354 86.23764343 73.27218018 86.22685242 72.43048096 C86.48233119 69.85371658 87.0473351 68.30843842 88.4539032 66.14044189 C93.97054143 62.92240293 99.1333973 62.34907707 105.4539032 63.14044189 C108.85558819 64.47681814 110.88869165 65.57523035 113.4539032 68.14044189 C116.69798273 83.15226091 116.76577898 98.84641704 116.4539032 114.14044189 C116.42707458 115.46374512 116.42707458 115.46374512 116.39970398 116.81378174 C116.33355332 119.52789032 116.24217987 122.23991485 116.1414032 124.95294189 C116.11900574 125.79486084 116.09660828 126.63677979 116.0735321 127.50421143 C115.86420601 132.17095202 115.41861344 135.32658008 112.4539032 139.14044189 C107.69215926 143.30696784 103.28922891 143.41958843 97.1882782 143.36309814 C93.68584093 143.07789968 91.33654518 142.13611711 88.4539032 140.14044189 C86.28463661 136.88654201 86.21310271 136.00648232 86.2585907 132.25372314 C86.26358582 131.40850098 86.26858093 130.56327881 86.27372742 129.69244385 C86.29193542 128.6234082 86.31014343 127.55437256 86.3289032 126.45294189 C86.3701532 123.04981689 86.4114032 119.64669189 86.4539032 116.14044189 C73.5839032 116.14044189 60.7139032 116.14044189 47.4539032 116.14044189 C47.7839032 117.79044189 48.1139032 119.44044189 48.4539032 121.14044189 C48.56417518 123.04122707 48.62914374 124.94495036 48.65922546 126.84869385 C48.6891433 128.52987053 48.6891433 128.52987053 48.71966553 130.24501038 C48.73637802 131.44413559 48.75309052 132.6432608 48.77030945 133.87872314 C48.79109055 135.11462692 48.81187164 136.3505307 48.83328247 137.62388611 C48.8875025 140.89696315 48.93777898 144.1700693 48.98612976 147.4432373 C49.0365189 150.78832449 49.09219136 154.13331914 49.14726257 157.47833252 C49.25426263 164.0322996 49.35606211 170.58633203 49.4539032 177.14044189 C51.17891052 177.16231567 51.17891052 177.16231567 52.93876648 177.18463135 C57.22179125 177.24277952 61.50429936 177.32001113 65.78691101 177.40289307 C67.63741139 177.43606486 69.48801106 177.46412077 71.33866882 177.48687744 C74.00511323 177.52056639 76.6706541 177.57288849 79.3367157 177.62872314 C80.15882538 177.63511307 80.98093506 177.64150299 81.82795715 177.64808655 C86.7544324 177.77304928 90.16844139 178.45637218 94.4539032 181.14044189 C98.28284779 185.36548421 98.74433476 189.34981963 98.6726532 194.85137939 C98.35614189 198.16344411 97.31934269 200.40890549 95.4539032 203.14044189 C92.31870278 205.14901072 89.71529861 205.43435757 86.0320282 205.55450439 C84.88838806 205.5933374 83.74474792 205.63217041 82.56645203 205.67218018 C81.29181091 205.70295654 80.0171698 205.73373291 78.7039032 205.76544189 C77.71128983 205.79296539 77.71128983 205.79296539 76.69862366 205.82104492 C61.22538681 206.24530416 45.74432577 206.24613273 30.2664032 206.26544189 C28.42507813 206.26946014 28.42507813 206.26946014 26.54655457 206.27355957 C22.98048514 206.27945321 19.41450458 206.27766693 15.84843445 206.27325439 C14.79201248 206.27522827 13.73559052 206.27720215 12.64715576 206.27923584 C-8.80587975 206.21386422 -8.80587975 206.21386422 -13.5460968 203.14044189 C-16.54596835 198.64063457 -17.30418022 194.44702581 -16.5460968 189.14044189 C-15.57021013 185.59047734 -14.27640193 182.82510295 -11.5460968 180.26544189 C-2.39514824 175.11803333 5.34113849 178.14044189 17.4539032 178.14044189 C17.4539032 128.31044189 17.4539032 78.48044189 17.4539032 27.14044189 C8.8739032 27.14044189 0.2939032 27.14044189 -8.5460968 27.14044189 C-14.42290522 23.61435684 -14.42290522 23.61435684 -15.5460968 20.14044189 C-16.15913361 15.14580516 -16.69669258 9.6616677 -14.56562805 4.99200439 C-10.4648427 -0.18129405 -6.18018597 0.01565272 0 0 Z " fill="#020202" transform="translate(484.5460968017578,65.85955810546875)"/>
<path d="M0 0 C0.94384552 -0.00175232 1.88769104 -0.00350464 2.86013794 -0.00531006 C5.97977541 -0.00970942 9.09935609 -0.00679516 12.21899414 -0.00341797 C14.39791372 -0.00409206 16.57683324 -0.00506297 18.75575256 -0.00631714 C23.3278983 -0.00779194 27.9000245 -0.00564839 32.47216797 -0.00097656 C38.29875484 0.00469014 44.12529533 0.00145985 49.95188046 -0.00454903 C54.45693807 -0.00818658 58.96198496 -0.00700094 63.46704292 -0.00442123 C65.61298185 -0.00375919 67.75892179 -0.00455483 69.90485954 -0.00690079 C96.65953676 -0.02971029 123.04151161 0.76076145 143.29711914 20.62158203 C146.55692365 24.22363796 149.23226153 27.87122593 151.56665039 32.12939453 C152.11385742 33.11939453 152.11385742 33.11939453 152.67211914 34.12939453 C160.83916563 50.6512357 162.47934417 70.56475677 156.89990234 88.09985352 C150.88968634 105.14535313 140.61192821 116.6336999 124.56665039 125.12939453 C107.93789914 132.97720807 90.00713686 132.52429146 72.06665039 132.31689453 C69.77889884 132.30181152 67.49113761 132.28812956 65.20336914 132.27587891 C59.65735469 132.24575935 54.11271581 132.18698829 48.56665039 132.12939453 C48.56665039 147.30939453 48.56665039 162.48939453 48.56665039 178.12939453 C61.83467698 178.05035973 61.83467698 178.05035973 75.10253906 177.94921875 C76.77156315 177.94337499 78.4405901 177.93827916 80.10961914 177.93408203 C80.96930298 177.9238501 81.82898682 177.91361816 82.71472168 177.90307617 C88.73111985 177.90132798 92.5583333 178.52274086 97.37915039 182.37939453 C100.70675939 186.61261864 100.12752653 191.74420746 100.13305664 196.88720703 C99.47286442 200.66623837 98.58539721 201.83931074 95.56665039 204.12939453 C92.78756129 205.05575757 91.09346552 205.26254549 88.22209167 205.28329468 C87.33473831 205.29189514 86.44738495 205.30049561 85.53314209 205.30935669 C84.07669281 205.31574661 84.07669281 205.31574661 82.59082031 205.32226562 C81.56614151 205.33044312 80.54146271 205.33862061 79.48573303 205.3470459 C76.08953436 205.37189033 72.69337742 205.38841244 69.29711914 205.40283203 C67.55830192 205.41081755 67.55830192 205.41081755 65.78435707 205.41896439 C59.65019008 205.44569021 53.51604342 205.46506807 47.38183594 205.47949219 C41.04300341 205.49615007 34.70468976 205.54093971 28.36605358 205.59186363 C23.49415989 205.62549799 18.62239004 205.63706541 13.75039101 205.64271927 C11.41358786 205.64944085 9.07679312 205.66468625 6.74010277 205.68861008 C3.46985757 205.72018501 0.20102131 205.72030948 -3.06933594 205.71289062 C-4.03422943 205.72929596 -4.99912292 205.74570129 -5.99325562 205.76260376 C-10.40657188 205.72162188 -13.48715192 205.57036786 -17.02641296 202.77261353 C-19.83945084 199.68342746 -20.26827437 198.25627545 -20.43334961 194.12939453 C-20.51584961 192.95376953 -20.59834961 191.77814453 -20.68334961 190.56689453 C-20.35569018 186.06157734 -18.7981748 183.79092085 -15.99584961 180.37939453 C-7.21901732 173.3579287 6.33398229 177.53056125 17.56665039 177.12939453 C17.89665039 127.62939453 18.22665039 78.12939453 18.56665039 27.12939453 C8.66665039 27.12939453 -1.23334961 27.12939453 -11.43334961 27.12939453 C-17.43334961 24.12939453 -17.43334961 24.12939453 -18.79663086 22.35205078 C-19.65287256 19.36308435 -19.65971598 16.67267082 -19.62084961 13.56689453 C-19.6144043 12.43123047 -19.60795898 11.29556641 -19.60131836 10.12548828 C-19.41253094 6.75804766 -19.19945967 4.84078244 -16.68334961 2.50439453 C-11.61734188 -0.59149908 -5.74671346 -0.0131331 0 0 Z M48.56665039 27.12939453 C48.56665039 52.86939453 48.56665039 78.60939453 48.56665039 105.12939453 C58.28102539 105.22220703 58.28102539 105.22220703 68.19165039 105.31689453 C70.20468262 105.34420654 72.21771484 105.37151855 74.29174805 105.3996582 C90.33537131 105.52762882 105.35321722 104.12251614 118.44165039 93.87939453 C126.72333133 83.16192508 129.58116553 72.96179809 128.32446289 59.54345703 C126.82814645 48.64172295 121.45033101 40.98343104 113.06665039 34.06689453 C103.38430088 27.88025043 91.07594175 26.96451546 79.91430664 27.03173828 C78.71590149 27.0332489 78.71590149 27.0332489 77.49328613 27.03479004 C74.5385594 27.03998091 71.58385329 27.05394184 68.62915039 27.06689453 C62.00852539 27.08751953 55.38790039 27.10814453 48.56665039 27.12939453 Z " fill="#040404" transform="translate(280.433349609375,65.87060546875)"/>
<path d="M0 0 C1.06359741 0.0153479 1.06359741 0.0153479 2.14868164 0.03100586 C7.1226128 0.23275212 10.75605681 1.07867884 14.90234375 3.78515625 C16.99212866 6.67528432 17.07553192 9.02647581 17.1875 12.5625 C16.32546845 15.44192482 15.39211907 17.95817986 14.1875 20.6875 C13.44557865 22.45138754 12.70479556 24.21575408 11.96484375 25.98046875 C11.53413574 26.99415527 11.10342773 28.0078418 10.65966797 29.05224609 C8.94484163 33.14109736 7.28295362 37.249553 5.62890625 41.36328125 C-5.39538926 68.76364217 -5.39538926 68.76364217 -10.5625 80.625 C-14.44635221 89.54189657 -17.98927798 98.57898041 -21.51879883 107.64111328 C-27.22719207 122.25831403 -33.29257976 136.72572269 -39.33300781 151.20800781 C-45.2849511 165.48884409 -51.11611159 179.80209267 -56.7253418 194.22119141 C-60.32166597 203.42127211 -64.11706316 212.52708555 -68.02172852 221.6003418 C-70.67089676 227.77333232 -73.15485086 233.98795365 -75.54443359 240.26586914 C-77.67854569 245.81398536 -79.93540493 251.31145476 -82.1875 256.8125 C-82.66574219 257.98329102 -83.14398438 259.15408203 -83.63671875 260.36035156 C-85.02689527 263.76178751 -86.41918208 267.16234981 -87.8125 270.5625 C-88.18793945 271.47902344 -88.56337891 272.39554687 -88.95019531 273.33984375 C-89.90310852 275.66455304 -90.85725105 277.98874964 -91.8125 280.3125 C-92.07853027 280.95993164 -92.34456055 281.60736328 -92.61865234 282.27441406 C-93.34590066 284.03877764 -94.07907835 285.80069365 -94.8125 287.5625 C-95.05871094 288.18833984 -95.30492187 288.81417969 -95.55859375 289.45898438 C-96.89485188 292.77193523 -97.95366713 295.37329639 -100.8125 297.5625 C-104.59415164 298.20224583 -108.42033075 298.02576536 -112.25 298 C-113.29994141 298.01998047 -114.34988281 298.03996094 -115.43164062 298.06054688 C-116.94854492 298.05958008 -116.94854492 298.05958008 -118.49609375 298.05859375 C-119.88139282 298.06137329 -119.88139282 298.06137329 -121.29467773 298.06420898 C-124.55411891 297.41472274 -125.74429056 296.10593866 -127.8125 293.5625 C-129.53984905 287.67381004 -127.41395402 282.07457294 -125.16015625 276.62890625 C-124.89216721 275.97625793 -124.62417816 275.32360962 -124.34806824 274.65118408 C-123.51068905 272.61827921 -122.66273683 270.59005658 -121.8125 268.5625 C-121.3062207 267.3458667 -120.79994141 266.1292334 -120.27832031 264.87573242 C-119.00299097 261.82422837 -117.72096882 258.77567914 -116.43408203 255.72903442 C-110.60046565 241.91050159 -104.89490128 228.04273932 -99.26318359 214.140625 C-97.68525758 210.24865535 -96.10283338 206.35853466 -94.51953125 202.46875 C-93.38783876 199.68757405 -92.25634468 196.90631745 -91.125 194.125 C-90.84793213 193.44387146 -90.57086426 192.76274292 -90.28540039 192.06097412 C-86.62594114 183.06162032 -82.98175593 174.056417 -79.43481445 165.01196289 C-77.87073725 161.05977362 -76.19466037 157.18625839 -74.41015625 153.328125 C-71.59468294 147.19111538 -69.17212897 140.92539752 -66.75 134.625 C-62.95597778 124.8518894 -58.99022901 115.17982485 -54.8125 105.5625 C-50.21948924 94.98447715 -45.91653468 84.32130752 -41.74609375 73.5703125 C-38.73604799 65.83640879 -35.55832951 58.20018471 -32.23461914 50.59667969 C-28.47937027 41.9380697 -25.07791512 33.1411782 -21.70507812 24.328125 C-12.20531995 -0.26114504 -12.20531995 -0.26114504 0 0 Z " fill="#040404" transform="translate(200.8125,31.4375)"/>
<path d="M0 0 C1.31554985 0.4495045 2.62738358 0.90989716 3.9375 1.375 C5.03384766 1.75785156 5.03384766 1.75785156 6.15234375 2.1484375 C8 3 8 3 9 5 C9.11163974 6.91872191 9.15927305 8.84129835 9.17700195 10.76318359 C9.19625481 12.57548965 9.19625481 12.57548965 9.21589661 14.42440796 C9.22328354 15.73583771 9.23067047 17.04726746 9.23828125 18.3984375 C9.24235678 19.06459705 9.2464323 19.73075661 9.25063133 20.41710281 C9.27148764 23.94245341 9.28579167 27.46776512 9.29516602 30.99316406 C9.30623487 34.63400539 9.34064031 38.27423626 9.38033772 41.91486168 C9.40648322 44.71500789 9.41485589 47.51500811 9.41844749 50.31526566 C9.42568529 52.30949856 9.45213206 54.30363174 9.47883606 56.29769897 C9.47591049 57.51220734 9.47298492 58.7267157 9.4699707 59.97802734 C9.47583694 61.04677094 9.48170319 62.11551453 9.48774719 63.21664429 C8.87699994 66.70190647 7.75541799 67.84721463 5 70 C1.44402882 71.18532373 -1.56384135 71.27859533 -5.3125 71.375 C-7.25576172 71.44847656 -7.25576172 71.44847656 -9.23828125 71.5234375 C-13 71 -13 71 -19 66 C-19 53.13 -19 40.26 -19 27 C-47.71 27 -76.42 27 -106 27 C-105.67 28.32 -105.34 29.64 -105 31 C-104.91358802 32.95516298 -104.88229284 34.91305004 -104.88647461 36.87011719 C-104.88655014 38.05103943 -104.88662567 39.23196167 -104.88670349 40.44866943 C-104.89186478 41.71857727 -104.89702606 42.98848511 -104.90234375 44.296875 C-104.9037587 45.60078186 -104.90517365 46.90468872 -104.90663147 48.24810791 C-104.91044133 51.70703055 -104.92025849 55.16591091 -104.93133545 58.62481689 C-104.94158254 62.15742409 -104.94619101 65.69003835 -104.95117188 69.22265625 C-104.96135091 76.14847479 -104.98092644 83.07417735 -105 90 C-92.46 90 -79.92 90 -67 90 C-67.07889201 83.59797162 -67.07889201 83.59797162 -67.18017578 77.19628906 C-67.1851709 76.39416992 -67.19016602 75.59205078 -67.1953125 74.765625 C-67.21102295 73.54020996 -67.21102295 73.54020996 -67.22705078 72.29003906 C-66.97140153 69.71155519 -66.41099231 68.16761137 -65 66 C-59.60291384 62.91595077 -55.13386604 62.62445718 -49 63 C-49 63.33 -49 63.66 -49 64 C-49.83144531 64.06316406 -50.66289063 64.12632812 -51.51953125 64.19140625 C-52.60621094 64.31386719 -53.69289063 64.43632812 -54.8125 64.5625 C-55.89144531 64.66691406 -56.97039063 64.77132812 -58.08203125 64.87890625 C-59.52642578 65.43384766 -59.52642578 65.43384766 -61 66 C-65.18242494 74.64711334 -65.18242494 74.64711334 -65 92 C-79.52 92 -94.04 92 -109 92 C-109 69.89 -109 47.78 -109 25 C-78.64 25 -48.28 25 -17 25 C-16.67 37.21 -16.34 49.42 -16 62 C-15.01 64.97 -15.01 64.97 -14 68 C-11.39555652 68.05394705 -8.79223002 68.09364469 -6.1875 68.125 C-5.44951172 68.14175781 -4.71152344 68.15851563 -3.95117188 68.17578125 C-0.08753574 68.21074628 1.70903668 68.19397555 5 66 C6.01667485 62.94997544 6.13256433 60.86687579 6.14526367 57.67407227 C6.15164352 56.58606827 6.15802338 55.49806427 6.16459656 54.37709045 C6.16570938 53.20206467 6.1668222 52.02703888 6.16796875 50.81640625 C6.17129715 49.60935532 6.17462555 48.40230438 6.17805481 47.15867615 C6.18312102 44.604079 6.18546323 42.04947522 6.18530273 39.49487305 C6.18748924 35.58175791 6.20564858 31.66892461 6.22460938 27.75585938 C6.22754331 25.27604263 6.22952811 22.79622455 6.23046875 20.31640625 C6.24124702 18.55690392 6.24124702 18.55690392 6.25224304 16.76185608 C6.2476281 15.12512184 6.2476281 15.12512184 6.24291992 13.45532227 C6.24434494 12.49618423 6.24576996 11.5370462 6.24723816 10.54884338 C5.98688702 7.86481481 5.45260942 6.25783636 4 4 C1.9664052 2.73195434 1.9664052 2.73195434 0 2 C0 1.34 0 0.68 0 0 Z " fill="#373737" transform="translate(638,66)"/>
<path d="M0 0 C1.06359741 0.0153479 1.06359741 0.0153479 2.14868164 0.03100586 C7.1226128 0.23275212 10.75605681 1.07867884 14.90234375 3.78515625 C16.99212866 6.67528432 17.07553192 9.02647581 17.1875 12.5625 C16.32546845 15.44192482 15.39211907 17.95817986 14.1875 20.6875 C13.44557865 22.45138754 12.70479556 24.21575408 11.96484375 25.98046875 C11.53413574 26.99415527 11.10342773 28.0078418 10.65966797 29.05224609 C8.9448416 33.14109744 7.28295745 37.2495545 5.62890625 41.36328125 C-0.13468927 55.68809184 -5.91589009 69.99566562 -12.07373047 84.15673828 C-14.55273619 89.87873533 -16.83128158 95.6465541 -18.8125 101.5625 C-19.4725 101.5625 -20.1325 101.5625 -20.8125 101.5625 C-19.16977029 95.33577215 -17.01352785 89.35841976 -14.65625 83.375 C-14.02785102 81.76971843 -13.39951657 80.1644116 -12.77124023 78.55908203 C-12.44799774 77.73506897 -12.12475525 76.91105591 -11.79171753 76.06207275 C-10.20862994 72.02104766 -8.63800626 67.97519074 -7.06640625 63.9296875 C-6.45123463 62.34763185 -5.83600042 60.76560053 -5.22070312 59.18359375 C-4.917854 58.40483887 -4.61500488 57.62608398 -4.30297852 56.82373047 C-1.80615234 50.40332031 0.69067383 43.98291016 3.1875 37.5625 C3.8475 37.5625 4.5075 37.5625 5.1875 37.5625 C5.33445312 37.01464844 5.48140625 36.46679688 5.6328125 35.90234375 C6.80442438 31.76130174 8.0789245 27.73373833 9.7578125 23.76953125 C10.17135986 22.78835327 10.17135986 22.78835327 10.59326172 21.78735352 C11.14707066 20.49187622 11.71343554 19.20167977 12.29345703 17.91772461 C14.07627037 13.73804243 14.52864129 10.93243884 13.1875 6.5625 C8.84056104 3.15543973 4.59476906 2.41621394 -0.8125 2.375 C-2.0809375 2.35373047 -2.0809375 2.35373047 -3.375 2.33203125 C-6.19841819 2.59898906 -7.47978795 2.93103268 -9.8125 4.5625 C-10.96489717 6.8984503 -11.86880127 9.06232016 -12.72265625 11.50390625 C-12.97623398 12.18678207 -13.22981171 12.8696579 -13.49107361 13.57322693 C-14.299319 15.75243636 -15.08886889 17.93772418 -15.875 20.125 C-16.66564821 22.31542927 -17.4603997 24.50385069 -18.26963806 26.68748474 C-18.77276222 28.04560609 -19.26511418 29.40777582 -19.74562073 30.77406311 C-20.43383789 32.63500977 -20.43383789 32.63500977 -21.8125 35.5625 C-23.2975 36.0575 -23.2975 36.0575 -24.8125 36.5625 C-24.90329834 37.19244873 -24.99409668 37.82239746 -25.08764648 38.47143555 C-26.10867025 42.82548805 -27.76616374 46.86678105 -29.41015625 51.01953125 C-29.94073891 52.37397591 -29.94073891 52.37397591 -30.48204041 53.75578308 C-31.60915096 56.63039477 -32.74199123 59.50270863 -33.875 62.375 C-34.64165537 64.32732504 -35.40793576 66.27979738 -36.17382812 68.23242188 C-38.04904364 73.01083264 -39.92939997 77.78719121 -41.8125 82.5625 C-42.4725 82.5625 -43.1325 82.5625 -43.8125 82.5625 C-43.97105469 83.12195313 -44.12960938 83.68140625 -44.29296875 84.2578125 C-47.01934069 93.62689175 -50.07221478 102.85852917 -54.171875 111.71875 C-56.94877783 117.75632407 -59.33658366 123.9113988 -61.6875 130.125 C-62.55700988 132.4050554 -63.42680327 134.68500269 -64.296875 136.96484375 C-64.72033203 138.07714355 -65.14378906 139.18944336 -65.58007812 140.33544922 C-67.34637333 144.96042742 -69.13898767 149.5749727 -70.9375 154.1875 C-71.23253418 154.94490479 -71.52756836 155.70230957 -71.83154297 156.48266602 C-72.49139522 158.17612596 -73.15186361 159.86934581 -73.8125 161.5625 C-74.4725 161.5625 -75.1325 161.5625 -75.8125 161.5625 C-75.98410645 162.17125977 -76.15571289 162.78001953 -76.33251953 163.40722656 C-78.11020411 169.54147368 -80.250227 175.41314513 -82.6875 181.3125 C-85.52334759 188.27751256 -88.17098964 195.26017885 -90.65234375 202.359375 C-92.76206163 208.18418531 -95.03977936 214.01705871 -97.8125 219.5625 C-98.4725 219.5625 -99.1325 219.5625 -99.8125 219.5625 C-100.08513672 220.57570312 -100.08513672 220.57570312 -100.36328125 221.609375 C-100.61464844 222.50140625 -100.86601563 223.3934375 -101.125 224.3125 C-101.36863281 225.19421875 -101.61226563 226.0759375 -101.86328125 226.984375 C-102.83375331 229.62022505 -104.02255644 231.41657326 -105.8125 233.5625 C-105.18621676 228.16707795 -103.40097971 223.60781346 -101.34765625 218.6328125 C-100.99880875 217.77400986 -100.64996124 216.91520721 -100.2905426 216.03038025 C-99.15803121 213.24692907 -98.01669519 210.46719532 -96.875 207.6875 C-96.09053706 205.76507452 -95.30652185 203.84246628 -94.52294922 201.91967773 C-90.15503367 191.21511505 -85.75073862 180.52563857 -81.27954102 169.86376953 C-78.24082094 162.61664535 -75.26918267 155.34344646 -72.3125 148.0625 C-68.85326487 139.54508632 -65.35998613 131.04353883 -61.8125 122.5625 C-55.31212929 107.00941847 -48.92803972 91.40844561 -42.6953125 75.74609375 C-42.4357225 75.09389359 -42.17613251 74.44169342 -41.90867615 73.76972961 C-41.64966019 73.11892929 -41.39064423 72.46812897 -41.1237793 71.79760742 C-40.60336536 70.49006664 -40.08293898 69.18253081 -39.5625 67.875 C-39.30634918 67.2312442 -39.05019836 66.5874884 -38.7862854 65.92422485 C-36.00568448 58.94303584 -33.19889832 51.98321275 -30.125 45.125 C-26.83892512 37.789581 -23.94173504 30.31907251 -21.0949707 22.80297852 C-12.25289663 -0.26216299 -12.25289663 -0.26216299 0 0 Z " fill="#B0B0B0" transform="translate(200.8125,31.4375)"/>
<path d="M0 0 C14.19 0 28.38 0 43 0 C43.495 10.395 43.495 10.395 44 21 C48.29204831 25.29204831 49.02074583 25.93510642 54.8125 26.125 C58.28910918 26.08644241 61.58471071 25.68305786 65 25 C64.67 25.66 64.34 26.32 64 27 C58.25469711 28.91510096 52.09663455 28.77244431 46.4375 26.6875 C44 25 44 25 42 22 C41.77294922 19.73168945 41.77294922 19.73168945 41.8046875 17.11328125 C41.80968262 16.26805908 41.81467773 15.42283691 41.81982422 14.55200195 C41.83803223 13.48296631 41.85624023 12.41393066 41.875 11.3125 C41.91625 7.909375 41.9575 4.50625 42 1 C29.13 1 16.26 1 3 1 C3.495 3.475 3.495 3.475 4 6 C4.11027198 7.90078517 4.17524054 9.80450847 4.20532227 11.70825195 C4.2352401 13.38942863 4.2352401 13.38942863 4.26576233 15.10456848 C4.28247482 16.3036937 4.29918732 17.50281891 4.31640625 18.73828125 C4.33718735 19.97418503 4.35796844 21.21008881 4.37937927 22.48344421 C4.43359931 25.75652126 4.48387578 29.0296274 4.53222656 32.30279541 C4.5826157 35.6478826 4.63828816 38.99287724 4.69335938 42.33789062 C4.80035943 48.89185771 4.90215892 55.44589013 5 62 C6.72500732 62.02187378 6.72500732 62.02187378 8.48486328 62.04418945 C12.76788805 62.10233762 17.05039616 62.17956924 21.33300781 62.26245117 C23.18350819 62.29562296 25.03410786 62.32367887 26.88476562 62.34643555 C29.55121003 62.3801245 32.2167509 62.4324466 34.8828125 62.48828125 C35.70492218 62.49467117 36.52703186 62.5010611 37.37405396 62.50764465 C42.3005292 62.63260738 45.71453819 63.31593028 50 66 C53.8289446 70.22504231 54.29043156 74.20937774 54.21875 79.7109375 C53.9022387 83.02300222 52.86543949 85.2684636 51 88 C47.86479958 90.00856883 45.26139541 90.29391567 41.578125 90.4140625 C40.43424316 90.45289551 39.29036133 90.49172852 38.11181641 90.53173828 C36.83741699 90.56251465 35.56301758 90.59329102 34.25 90.625 C33.58925476 90.643349 32.92850952 90.661698 32.2477417 90.68060303 C16.71107479 91.10733194 1.16637689 91.10572783 -14.375 91.125 C-15.61536011 91.12767883 -16.85572021 91.13035767 -18.13366699 91.13311768 C-21.72195325 91.13898806 -25.31015063 91.13723605 -28.8984375 91.1328125 C-30.50629623 91.13577332 -30.50629623 91.13577332 -32.14663696 91.13879395 C-38.4904052 91.11946754 -44.70175429 90.76520538 -51 90 C-51 89.67 -51 89.34 -51 89 C-18.66 88.67 13.68 88.34 47 88 C47.495 86.515 47.495 86.515 48 85 C48.66 85 49.32 85 50 85 C50.02709444 82.91673869 50.04643873 80.83337559 50.0625 78.75 C50.07410156 77.58984375 50.08570313 76.4296875 50.09765625 75.234375 C50.01782092 72.59022872 49.78643778 70.50173909 49 68 C46.08373338 67.17084348 43.44292245 66.85421477 40.41503906 66.79467773 C39.50189941 66.77449585 38.58875977 66.75431396 37.64794922 66.73352051 C36.69678223 66.71704468 35.74561523 66.70056885 34.765625 66.68359375 C33.44473877 66.65561707 33.44473877 66.65561707 32.09716797 66.6270752 C28.81487849 66.55889414 25.5324276 66.49867106 22.25 66.4375 C14.9075 66.293125 7.565 66.14875 0 66 C0 44.22 0 22.44 0 0 Z " fill="#C3C3C3" transform="translate(529,181)"/>
<path d="M0 0 C0.94384552 -0.00175232 1.88769104 -0.00350464 2.86013794 -0.00531006 C5.97977541 -0.00970942 9.09935609 -0.00679516 12.21899414 -0.00341797 C14.39791372 -0.00409206 16.57683324 -0.00506297 18.75575256 -0.00631714 C23.3278983 -0.00779194 27.9000245 -0.00564839 32.47216797 -0.00097656 C38.29875484 0.00469014 44.12529533 0.00145985 49.95188046 -0.00454903 C54.45693807 -0.00818658 58.96198496 -0.00700094 63.46704292 -0.00442123 C65.61298185 -0.00375919 67.75892179 -0.00455483 69.90485954 -0.00690079 C96.65953676 -0.02971029 123.04151161 0.76076145 143.29711914 20.62158203 C146.55692365 24.22363796 149.23226153 27.87122593 151.56665039 32.12939453 C152.11385742 33.11939453 152.11385742 33.11939453 152.67211914 34.12939453 C159.33682024 47.61200824 160.1436067 61.38495558 159.56665039 76.12939453 C158.90665039 76.12939453 158.24665039 76.12939453 157.56665039 76.12939453 C157.52797852 74.36789063 157.52797852 74.36789063 157.48852539 72.57080078 C157.22260895 64.14864611 156.64508109 56.03284813 154.69165039 47.81689453 C154.53019531 47.13119385 154.36874023 46.44549316 154.20239258 45.73901367 C153.13597711 41.55566251 151.54283242 37.95189519 149.56665039 34.12939453 C149.56665039 33.46939453 149.56665039 32.80939453 149.56665039 32.12939453 C148.90665039 32.12939453 148.24665039 32.12939453 147.56665039 32.12939453 C147.33977539 31.38689453 147.11290039 30.64439453 146.87915039 29.87939453 C145.2912764 26.55242045 143.50655627 25.31723147 140.56665039 23.12939453 C139.79063477 22.34564453 139.01461914 21.56189453 138.21508789 20.75439453 C123.62695858 6.29536371 103.23807262 3.9441037 83.5390625 4.01586914 C82.47460907 4.01572311 81.41015564 4.01557709 80.31344604 4.01542664 C76.82360742 4.01611877 73.33382335 4.02387822 69.84399414 4.03173828 C67.41305063 4.03360495 64.98210674 4.03502768 62.55116272 4.036026 C56.17423451 4.03983159 49.79732932 4.04964507 43.42041016 4.06072998 C36.90470694 4.07098629 30.38899999 4.07553265 23.87329102 4.08056641 C11.10440102 4.09126918 -1.66447306 4.10812787 -14.43334961 4.12939453 C-14.43334961 4.78939453 -14.43334961 5.44939453 -14.43334961 6.12939453 C-15.09334961 6.12939453 -15.75334961 6.12939453 -16.43334961 6.12939453 C-16.10334961 11.73939453 -15.77334961 17.34939453 -15.43334961 23.12939453 C-14.77334961 23.12939453 -14.11334961 23.12939453 -13.43334961 23.12939453 C-13.43334961 23.78939453 -13.43334961 24.44939453 -13.43334961 25.12939453 C-12.77334961 25.45939453 -12.11334961 25.78939453 -11.43334961 26.12939453 C-13.74584961 25.94189453 -13.74584961 25.94189453 -16.43334961 25.12939453 C-19.43046601 21.25369082 -19.79434005 18.3324788 -19.68334961 13.50439453 C-19.66788086 12.37775391 -19.65241211 11.25111328 -19.63647461 10.09033203 C-19.40739555 6.7510642 -19.18028739 4.82297961 -16.68334961 2.50439453 C-11.61734188 -0.59149908 -5.74671346 -0.0131331 0 0 Z " fill="#979797" transform="translate(280.433349609375,65.87060546875)"/>
<path d="M0 0 C17.49 0 34.98 0 53 0 C53 0.66 53 1.32 53 2 C53.66 2.33 54.32 2.66 55 3 C54.17761841 2.90150757 54.17761841 2.90150757 53.33862305 2.80102539 C43.19110526 1.72804288 33.0057437 1.65283605 22.8125 1.4375 C16.274375 1.293125 9.73625 1.14875 3 1 C3 26.74 3 52.48 3 79 C12.714375 78.8453125 12.714375 78.8453125 22.625 78.6875 C24.63803223 78.66260498 26.65106445 78.63770996 28.72509766 78.61206055 C41.10140919 78.39818013 53.59990125 78.02962246 64.6875 71.875 C67.49293885 70.34890201 69.96719506 69.01093498 73 68 C73.70105843 66.34750513 74.35800351 64.67632417 75 63 C75.82182457 61.78380994 76.65643694 60.57621407 77.5 59.375 C83.20112285 50.34401778 82.24965705 39.27754853 82 29 C84.50588243 31.50588243 84.25668281 32.3362486 84.265625 35.796875 C84.26949219 37.23546875 84.26949219 37.23546875 84.2734375 38.703125 C84.26570313 39.70859375 84.25796875 40.7140625 84.25 41.75 C84.26160156 43.235 84.26160156 43.235 84.2734375 44.75 C84.25969467 49.88981666 84.05925776 54.19506522 82 59 C81.34 59 80.68 59 80 59 C79.93425781 59.721875 79.86851562 60.44375 79.80078125 61.1875 C77.97113159 67.61358662 70.6460709 72.48193542 65.05859375 75.6875 C50.90892227 82.01811201 35.83572765 81.25470257 20.6875 81.125 C13.860625 81.08375 7.03375 81.0425 0 81 C0 54.27 0 27.54 0 0 Z " fill="#9B9B9B" transform="translate(326,92)"/>
<path d="M0 0 C1.35473157 4.06419472 -0.11953715 6.50898067 -1.68359375 10.28125 C-1.97397018 11.0021431 -2.26434662 11.72303619 -2.56352234 12.46577454 C-3.51235924 14.81434782 -4.4747004 17.15712022 -5.4375 19.5 C-6.09494807 21.11909673 -6.75168486 22.73848246 -7.40771484 24.3581543 C-10.8788402 32.90848142 -14.40412845 41.43552646 -18.02563477 49.92333984 C-21.0820241 57.1141816 -23.97903242 64.36848964 -26.875 71.625 C-27.13066742 72.2654425 -27.38633484 72.90588501 -27.64974976 73.56573486 C-30.37967185 80.40665553 -33.09996223 87.25137293 -35.81640625 94.09765625 C-36.25936035 95.21124512 -36.70231445 96.32483398 -37.15869141 97.47216797 C-37.97977901 99.53664367 -38.79865654 101.6020005 -39.61474609 103.66845703 C-41.87699373 109.35385537 -44.31491172 114.92548133 -46.87280273 120.48364258 C-48.34861124 123.77824042 -49.59018704 127.10263467 -50.8125 130.5 C-53.26094594 137.18188278 -55.95554331 143.73244156 -58.74829102 150.27685547 C-62.12801345 158.22810982 -65.32318998 166.25035143 -68.49902344 174.28491211 C-70.32670695 178.89229027 -72.16857771 183.49362972 -74.109375 188.0546875 C-74.54975098 189.09471924 -74.54975098 189.09471924 -74.99902344 190.15576172 C-76.10286773 192.18952752 -77.2047433 193.54128177 -79 195 C-81.1875 194.6875 -81.1875 194.6875 -83 194 C-82.26120605 193.37955811 -81.52241211 192.75911621 -80.76123047 192.11987305 C-77.08555961 188.42522045 -75.61951372 183.88694546 -73.8203125 179.08203125 C-73.44446014 178.11077805 -73.06860779 177.13952484 -72.68136597 176.13883972 C-71.48338125 173.03470771 -70.30388933 169.92392748 -69.125 166.8125 C-68.34107141 164.77101253 -67.5559259 162.72999192 -66.76953125 160.68945312 C-65.23450864 156.70125791 -63.70640941 152.71052901 -62.18457031 148.71728516 C-59.16321758 140.79591161 -56.08334019 132.89740563 -53 125 C-52.34 125 -51.68 125 -51 125 C-50.73606445 124.0716333 -50.73606445 124.0716333 -50.46679688 123.12451172 C-48.77436305 117.31036078 -46.80574057 111.72092799 -44.5 106.125 C-43.80109474 104.40404699 -43.10324463 102.68266521 -42.40625 100.9609375 C-41.83777344 99.55859863 -41.83777344 99.55859863 -41.2578125 98.12792969 C-38.80048103 92.01703475 -36.40382438 85.88208977 -34 79.75 C-33.50198833 78.4806177 -33.00394223 77.2112489 -32.50585938 75.94189453 C-31.33668088 72.96148159 -30.16805071 69.98085507 -29 67 C-28.34 67 -27.68 67 -27 67 C-26.6596875 65.74832031 -26.319375 64.49664062 -25.96875 63.20703125 C-23.62358999 55.39671255 -20.53573102 47.85871689 -17.52978516 40.28491211 C-16.49652915 37.67874553 -15.4725068 35.06907849 -14.44921875 32.45898438 C-13.78961143 30.7888456 -13.12947381 29.11891615 -12.46875 27.44921875 C-12.16553833 26.67519211 -11.86232666 25.90116547 -11.54992676 25.10368347 C-9.9790284 21.16491569 -8.26983068 17.59920566 -6 14 C-4.90159243 11.57067524 -3.83813046 9.14648068 -2.8125 6.6875 C-2.53986328 6.04232422 -2.26722656 5.39714844 -1.98632812 4.73242188 C-1.32087746 3.15635451 -0.65996835 1.5783709 0 0 Z " fill="#B9B9B9" transform="translate(179,134)"/>
<path d="M0 0 C9.24 0 18.48 0 28 0 C28 51.15 28 102.3 28 155 C18.76 155.33 9.52 155.66 0 156 C-0.99 156.33 -1.98 156.66 -3 157 C-4.07462438 162.37312191 -4.99714551 168.08526697 -3.1875 173.375 C-1.92454922 175.29911164 -1.92454922 175.29911164 1 177 C1 177.66 1 178.32 1 179 C-2.80872749 178.15361611 -4.56927964 177.60300851 -6.875 174.375 C-8.665683 169.00295099 -8.76367305 164.43190125 -6.75 159.1875 C-4.41200204 154.92900372 -2.54453873 153.51484624 2 152 C9.92 152 17.84 152 26 152 C26 102.17 26 52.34 26 1 C17.42 1 8.84 1 0 1 C0 0.67 0 0.34 0 0 Z " fill="#DBDBDB" transform="translate(476,92)"/>
<path d="M0 0 C0.65270252 -0.00085442 1.30540505 -0.00170885 1.97788644 -0.00258917 C4.16279621 -0.00423498 6.34762905 0.00126268 8.53253174 0.00672913 C10.09960427 0.00701122 11.66667693 0.00685283 13.23374939 0.00628662 C17.48752066 0.0059995 21.74126377 0.01188244 25.9950285 0.01886058 C30.44065394 0.02510833 34.88628002 0.02569904 39.33190918 0.02688599 C47.75015763 0.0299951 56.1683931 0.03820285 64.58663583 0.04823548 C74.17058316 0.05940963 83.75453111 0.06491035 93.33848333 0.06993091 C113.05323848 0.08038579 132.76798195 0.09797713 152.48272705 0.12025452 C152.48272705 0.78025452 152.48272705 1.44025452 152.48272705 2.12025452 C151.274664 2.13056198 150.06660095 2.14086945 148.82192993 2.15148926 C80.96229654 2.67636295 80.96229654 2.67636295 13.10772705 3.62025452 C12.02110779 3.63813019 10.93448853 3.65600586 9.81494141 3.67442322 C6.86292843 3.72402224 3.91112815 3.7800288 0.95928955 3.83900452 C-0.27673004 3.8593148 -0.27673004 3.8593148 -1.53771973 3.8800354 C-5.01879308 3.95855851 -8.16460307 4.19399832 -11.51727295 5.12025452 C-13.31143816 12.29691535 -13.31736868 17.73609368 -9.51727295 24.12025452 C-9.18727295 24.78025452 -8.85727295 25.44025452 -8.51727295 26.12025452 C-13.15488192 24.65574642 -13.15488192 24.65574642 -14.6539917 22.44056702 C-16.5953092 17.22272723 -16.86855322 10.08122721 -14.5368042 4.97181702 C-10.43917924 -0.19749447 -6.17468445 -0.00486962 0 0 Z " fill="#E0E0E0" transform="translate(484.51727294921875,65.87974548339844)"/>
<path d="M0 0 C10.23 0 20.46 0 31 0 C31 50.82 31 101.64 31 154 C14.665 154.495 14.665 154.495 -2 155 C-5.27329382 158.27329382 -5.42566014 159.35202948 -5.5078125 163.8046875 C-5.50523437 164.52914062 -5.50265625 165.25359375 -5.5 166 C-5.52835937 166.72445312 -5.55671875 167.44890625 -5.5859375 168.1953125 C-5.65214208 170.58661534 -5.65214208 170.58661534 -5 174 C-0.61429819 177.88520203 4.2260967 177.41836087 9.75976562 177.37231445 C10.73757492 177.37596512 11.71538422 177.37961578 12.7228241 177.38337708 C15.95081012 177.39147436 19.17829287 177.37787896 22.40625 177.36328125 C24.65157063 177.36276255 26.89689173 177.36328064 29.14221191 177.36479187 C33.84634181 177.36470218 38.55030021 177.35427974 43.25439453 177.33618164 C49.28370613 177.31349479 55.31276715 177.31295083 61.34210968 177.31969929 C65.97807034 177.32304105 70.61397388 177.31640524 75.24992371 177.30657005 C77.47307537 177.30272135 79.69623339 177.30156847 81.91938782 177.3031559 C85.02645976 177.30352682 88.13321067 177.29089837 91.24023438 177.2746582 C92.61812386 177.27837433 92.61812386 177.27837433 94.02384949 177.28216553 C98.52474678 177.24462715 101.86475337 176.95630891 106 175 C106.99 175 107.98 175 109 175 C109 175.66 109 176.32 109 177 C104.07770528 179.59248357 99.21623506 179.30265916 93.79711914 179.30639648 C92.77214828 179.31472 91.74717743 179.32304352 90.69114685 179.33161926 C87.30577794 179.35569854 83.92060169 179.36448812 80.53515625 179.37109375 C78.18012942 179.38006029 75.82510317 179.38918214 73.47007751 179.39845276 C68.53480647 179.41493872 63.59960325 179.42264241 58.66430664 179.42553711 C52.34119161 179.43092627 46.01871377 179.46863092 39.69577885 179.51428127 C34.83245005 179.54402247 29.96927541 179.55126001 25.10586357 179.55226326 C22.77465325 179.55646988 20.44344265 179.56892175 18.11232185 179.58978081 C14.8518288 179.61663825 11.5928226 179.61188606 8.33227539 179.59936523 C6.88964828 179.62161667 6.88964828 179.62161667 5.4178772 179.64431763 C1.01247144 179.59614682 -2.0589729 179.43439984 -5.59107971 176.64222717 C-8.40682932 173.55376876 -8.83487961 172.12800987 -9 168 C-9.0825 166.824375 -9.165 165.64875 -9.25 164.4375 C-8.92234057 159.93218281 -7.36482519 157.66152632 -4.5625 154.25 C4.21433229 147.22853417 17.7673319 151.40116672 29 151 C29.33 101.5 29.66 52 30 1 C20.1 1 10.2 1 0 1 C0 0.67 0 0.34 0 0 Z " fill="#FEFEFE" transform="translate(269,92)"/>
<path d="M0 0 C29.7 0 59.4 0 90 0 C90.33 12.54 90.66 25.08 91 38 C91.99 40.475 91.99 40.475 93 43 C91.68 42.01 90.36 41.02 89 40 C89 27.13 89 14.26 89 1 C60.29 1 31.58 1 2 1 C2.33 2.32 2.66 3.64 3 5 C3.08641198 6.95516298 3.11770716 8.91305004 3.11352539 10.87011719 C3.11344986 12.05103943 3.11337433 13.23196167 3.11329651 14.44866943 C3.10813522 15.71857727 3.10297394 16.98848511 3.09765625 18.296875 C3.09553383 20.25273529 3.09553383 20.25273529 3.09336853 22.24810791 C3.08955867 25.70703055 3.07974151 29.16591091 3.06866455 32.62481689 C3.05841746 36.15742409 3.05380899 39.69003835 3.04882812 43.22265625 C3.03864909 50.14847479 3.01907356 57.07417735 3 64 C15.54 64 28.08 64 41 64 C40.92110799 57.59797162 40.92110799 57.59797162 40.81982422 51.19628906 C40.8148291 50.39416992 40.80983398 49.59205078 40.8046875 48.765625 C40.78897705 47.54020996 40.78897705 47.54020996 40.77294922 46.29003906 C41.02859847 43.71155519 41.58900769 42.16761137 43 40 C48.39708616 36.91595077 52.86613396 36.62445718 59 37 C59 37.33 59 37.66 59 38 C58.18015625 38.08636719 57.3603125 38.17273438 56.515625 38.26171875 C55.43796875 38.40222656 54.3603125 38.54273438 53.25 38.6875 C52.18265625 38.81511719 51.1153125 38.94273437 50.015625 39.07421875 C46.30824154 39.90264881 46.30824154 39.90264881 43 45 C42.67 51.6 42.34 58.2 42 65 C28.14 65 14.28 65 0 65 C0 43.55 0 22.1 0 0 Z " fill="#FEFEFE" transform="translate(530,92)"/>
<path d="M0 0 C19.14 0 38.28 0 58 0 C58 0.33 58 0.66 58 1 C52.23371829 2.24177006 46.56109163 2.12674309 40.6953125 2.09765625 C39.61619598 2.0962413 38.53707947 2.09482635 37.42526245 2.09336853 C33.99181298 2.08778844 30.55842964 2.07523955 27.125 2.0625 C24.79166761 2.05748243 22.4583342 2.05291997 20.125 2.04882812 C14.41662093 2.03867809 8.70838416 2.01909868 3 2 C3 17.18 3 32.36 3 48 C16.26802659 47.9209652 16.26802659 47.9209652 29.53588867 47.81982422 C31.20491276 47.81398046 32.87393971 47.80888463 34.54296875 47.8046875 C35.40265259 47.79445557 36.26233643 47.78422363 37.14807129 47.77368164 C43.16446946 47.77193345 46.99168291 48.39334633 51.8125 52.25 C55.7249492 57.1161087 54.36095205 64.14455557 54 70 C53.01 70 52.02 70 51 70 C51.02320313 69.10796875 51.04640625 68.2159375 51.0703125 67.296875 C51.08835937 66.12640625 51.10640625 64.9559375 51.125 63.75 C51.14820313 62.58984375 51.17140625 61.4296875 51.1953125 60.234375 C51.00892712 57.14783309 50.78936323 55.48851839 49 53 C46.18630906 52.06210302 44.356895 51.85068018 41.43676758 51.79467773 C40.50320435 51.77449585 39.56964111 51.75431396 38.60778809 51.73352051 C37.62991333 51.71704468 36.65203857 51.70056885 35.64453125 51.68359375 C34.74327515 51.66494263 33.84201904 51.6462915 32.91345215 51.6270752 C29.54656789 51.55877308 26.17952216 51.49862718 22.8125 51.4375 C11.5203125 51.2209375 11.5203125 51.2209375 0 51 C0 34.17 0 17.34 0 0 Z " fill="#CCCCCC" transform="translate(326,196)"/>
<path d="M0 0 C1.44552194 4.33656581 -0.45975807 7.33947419 -2.125 11.375 C-2.73226922 12.88261184 -3.33902666 14.39042992 -3.9453125 15.8984375 C-4.27225098 16.70466553 -4.59918945 17.51089355 -4.93603516 18.34155273 C-6.5634959 22.40796393 -8.12069208 26.50092356 -9.68798828 30.59082031 C-11.88588853 36.30192546 -14.13241167 41.99382843 -16.375 47.6875 C-20.60852601 58.44863736 -24.82108503 69.21754363 -29 80 C-29.66 80 -30.32 80 -31 80 C-31.17160645 80.60875977 -31.34321289 81.21751953 -31.52001953 81.84472656 C-33.29770411 87.97897368 -35.437727 93.85064513 -37.875 99.75 C-40.71084759 106.71501256 -43.35848964 113.69767885 -45.83984375 120.796875 C-47.94956163 126.62168531 -50.22727936 132.45455871 -53 138 C-53.66 138 -54.32 138 -55 138 C-55.27263672 139.01320312 -55.27263672 139.01320312 -55.55078125 140.046875 C-55.80214844 140.93890625 -56.05351563 141.8309375 -56.3125 142.75 C-56.55613281 143.63171875 -56.79976563 144.5134375 -57.05078125 145.421875 C-58.02125331 148.05772505 -59.21005644 149.85407326 -61 152 C-60.37371676 146.60457795 -58.58847971 142.04531346 -56.53515625 137.0703125 C-56.18630875 136.21150986 -55.83746124 135.35270721 -55.4780426 134.46788025 C-54.34553121 131.68442907 -53.20419519 128.90469532 -52.0625 126.125 C-51.27803706 124.20257452 -50.49402185 122.27996628 -49.71044922 120.35717773 C-45.34253367 109.65261505 -40.93823862 98.96313857 -36.46704102 88.30126953 C-33.42832053 81.05414437 -30.45676556 73.78091342 -27.5 66.5 C-23.66670476 57.06435079 -19.78893107 47.64892046 -15.86181641 38.25195312 C-12.34753333 29.84232555 -8.85805298 21.42259669 -5.375 13 C-5.10470978 12.34646545 -4.83441956 11.69293091 -4.55593872 11.01959229 C-3.03688762 7.34656217 -1.5182494 3.67336157 0 0 Z " fill="#B9B9B9" transform="translate(156,113)"/>
<path d="M0 0 C2.50588243 2.50588243 2.25668281 3.3362486 2.265625 6.796875 C2.26949219 8.23546875 2.26949219 8.23546875 2.2734375 9.703125 C2.26570313 10.70859375 2.25796875 11.7140625 2.25 12.75 C2.26160156 14.235 2.26160156 14.235 2.2734375 15.75 C2.25969467 20.88981666 2.05925776 25.19506522 0 30 C-0.66 30 -1.32 30 -2 30 C-2.06574219 30.721875 -2.13148438 31.44375 -2.19921875 32.1875 C-4.02886841 38.61358662 -11.3539291 43.48193542 -16.94140625 46.6875 C-30.93984243 52.95044881 -45.82440196 52.25933148 -60.8125 52.125 C-62.77668813 52.11494637 -64.74088125 52.10582475 -66.70507812 52.09765625 C-71.47017779 52.07584026 -76.23503228 52.04144282 -81 52 C-77.95232968 48.95232968 -74.41687907 49.70179112 -70.328125 49.69140625 C-68.52994531 49.66620074 -66.7317683 49.64080354 -64.93359375 49.61523438 C-62.11019919 49.58676194 -59.28685278 49.56274861 -56.46337891 49.54370117 C-36.21408421 49.50385984 -36.21408421 49.50385984 -17.3125 42.875 C-14.50706115 41.34890201 -12.03280494 40.01093498 -9 39 C-8.29894157 37.34750513 -7.64199649 35.67632417 -7 34 C-6.17817543 32.78380994 -5.34356306 31.57621407 -4.5 30.375 C1.20112285 21.34401778 0.24965705 10.27754853 0 0 Z " fill="#CACACA" transform="translate(408,121)"/>
<path d="M0 0 C2.54873212 0.34442326 4.48674934 0.63106187 6.59765625 2.1484375 C14.47090635 12.54375936 11.26404917 37.05133622 11 50 C10.98211426 50.88220215 10.96422852 51.7644043 10.94580078 52.67333984 C10.87965012 55.38744843 10.78827667 58.09947295 10.6875 60.8125 C10.66510254 61.65441895 10.64270508 62.49633789 10.61962891 63.36376953 C10.41134306 68.00731862 10.00010233 71.22950102 7 75 C6.01 75.495 6.01 75.495 5 76 C5.16134933 75.47112183 5.32269867 74.94224365 5.48893738 74.39733887 C6.12003272 71.43693966 6.15070832 68.67085172 6.17700195 65.64257812 C6.18983719 64.35444214 6.20267242 63.06630615 6.21589661 61.73913574 C6.22406209 60.33651108 6.23150619 58.93388206 6.23828125 57.53125 C6.24235678 56.82279434 6.2464323 56.11433868 6.25063133 55.38441467 C6.27144657 51.63860368 6.28577105 47.89282888 6.29516602 44.14697266 C6.30625559 40.27976368 6.34069678 36.41312611 6.38033772 32.54611969 C6.40646913 29.56926397 6.41485441 26.59254566 6.41844749 23.61558533 C6.42331803 22.18981542 6.43494551 20.76405184 6.45348549 19.33839417 C6.47781091 17.34487757 6.47449863 15.35108174 6.4699707 13.35742188 C6.47583694 12.22365112 6.48170319 11.08988037 6.48774719 9.92175293 C5.89436926 6.36724 4.6541119 5.32687686 2 3 C2 2.34 2 1.68 2 1 C1.34 0.67 0.68 0.34 0 0 Z " fill="#EBEBEB" transform="translate(590,130)"/>
<path d="M0 0 C0.75042068 0.00424484 1.50084137 0.00848969 2.27400208 0.01286316 C4.66871151 0.02964425 7.06257659 0.06729385 9.45703125 0.10546875 C11.08136805 0.1205164 12.70571805 0.13420466 14.33007812 0.14648438 C18.31022073 0.1795457 22.28973288 0.23132281 26.26953125 0.29296875 C26.26953125 0.62296875 26.26953125 0.95296875 26.26953125 1.29296875 C25.28557373 1.30755127 24.30161621 1.32213379 23.2878418 1.3371582 C19.63659351 1.39513873 15.98596214 1.4723706 12.33520508 1.55541992 C10.75522882 1.58867063 9.17513373 1.61670221 7.5949707 1.6394043 C5.32321546 1.67294891 3.05254922 1.72526102 0.78125 1.78125 C0.07489914 1.78763992 -0.63145172 1.79402985 -1.35920715 1.8006134 C-4.21730554 1.88627159 -6.26096843 1.97801893 -8.6706543 3.59448242 C-10.52671074 6.56904697 -10.24255658 9.89628777 -10.23046875 13.29296875 C-10.25882812 14.01742188 -10.2871875 14.741875 -10.31640625 15.48828125 C-10.38261083 17.87958409 -10.38261083 17.87958409 -9.73046875 21.29296875 C-5.34476694 25.17817078 -0.50437205 24.71132962 5.02929688 24.6652832 C6.00710617 24.66893387 6.98491547 24.67258453 7.99235535 24.67634583 C11.22034137 24.68444311 14.44782412 24.67084771 17.67578125 24.65625 C19.92110188 24.6557313 22.16642298 24.65624939 24.41174316 24.65776062 C29.11587306 24.65767093 33.81983146 24.64724849 38.52392578 24.62915039 C44.55323738 24.60646354 50.5822984 24.60591958 56.61164093 24.61266804 C61.24760159 24.6160098 65.88350513 24.60937399 70.51945496 24.5995388 C72.74260662 24.5956901 74.96576464 24.59453722 77.18891907 24.59612465 C80.29599101 24.59649557 83.40274192 24.58386712 86.50976562 24.56762695 C87.88765511 24.57134308 87.88765511 24.57134308 89.29338074 24.57513428 C93.79427803 24.5375959 97.13428462 24.24927766 101.26953125 22.29296875 C102.25953125 22.29296875 103.24953125 22.29296875 104.26953125 22.29296875 C104.26953125 22.95296875 104.26953125 23.61296875 104.26953125 24.29296875 C99.34723653 26.88545232 94.48576631 26.59562791 89.06665039 26.59936523 C88.04167953 26.60768875 87.01670868 26.61601227 85.9606781 26.62458801 C82.57530919 26.64866729 79.19013294 26.65745687 75.8046875 26.6640625 C73.44966067 26.67302904 71.09463442 26.68215089 68.73960876 26.69142151 C63.80433772 26.70790747 58.8691345 26.71561116 53.93383789 26.71850586 C47.61072286 26.72389502 41.28824502 26.76159967 34.9653101 26.80725002 C30.1019813 26.83699122 25.23880666 26.84422876 20.37539482 26.84523201 C18.0441845 26.84943863 15.7129739 26.8618905 13.3818531 26.88274956 C10.12136005 26.909607 6.86235385 26.90485481 3.60180664 26.89233398 C2.64005524 26.90716827 1.67830383 26.92200256 0.68740845 26.93728638 C-3.71799731 26.88911557 -6.78944165 26.72736859 -10.32154846 23.93519592 C-13.13729807 20.84673751 -13.56534836 19.42097862 -13.73046875 15.29296875 C-13.81296875 14.11734375 -13.89546875 12.94171875 -13.98046875 11.73046875 C-13.70637631 7.96169765 -12.97382988 6.28411692 -10.73046875 3.29296875 C-10.36010498 2.75760498 -9.98974121 2.22224121 -9.6081543 1.6706543 C-6.66013764 -0.49234896 -3.51185454 -0.07467071 0 0 Z " fill="#D8D8D8" transform="translate(273.73046875,244.70703125)"/>
<path d="M0 0 C3.53508103 0.29459009 4.76203444 0.74881413 7.25 3.375 C10.40276253 8.1041438 10.52711106 12.48415927 10 18 C8.06667974 23.31663071 8.06667974 23.31663071 5.22949219 25.13427734 C2.57122638 26.16649488 0.43005466 26.32103368 -2.421875 26.4140625 C-3.56575684 26.45289551 -4.70963867 26.49172852 -5.88818359 26.53173828 C-7.16258301 26.56251465 -8.43698242 26.59329102 -9.75 26.625 C-10.74111786 26.6525235 -10.74111786 26.6525235 -11.7522583 26.68060303 C-27.28892521 27.10733194 -42.83362311 27.10572783 -58.375 27.125 C-60.23554016 27.12901825 -60.23554016 27.12901825 -62.13366699 27.13311768 C-65.72195325 27.13898806 -69.31015063 27.13723605 -72.8984375 27.1328125 C-74.50629623 27.13577332 -74.50629623 27.13577332 -76.14663696 27.13879395 C-82.4904052 27.11946754 -88.70175429 26.76520538 -95 26 C-95 25.67 -95 25.34 -95 25 C-62.66 24.67 -30.32 24.34 3 24 C3.495 22.515 3.495 22.515 4 21 C4.66 21 5.32 21 6 21 C6.02709444 18.91673869 6.04643873 16.83337559 6.0625 14.75 C6.07410156 13.58984375 6.08570313 12.4296875 6.09765625 11.234375 C6.01857338 7.51132855 6.01857338 7.51132855 5 4 C4.01 3.67 3.02 3.34 2 3 C2 2.34 2 1.68 2 1 C1.01 0.505 1.01 0.505 0 0 Z " fill="#F0F0F0" transform="translate(573,245)"/>
<path d="M0 0 C16.3225634 0.82996085 30.86736902 9.38585384 42 21 C54.45880563 36.47993232 56.75059355 54.81816486 56 74 C55.34 74 54.68 74 54 74 C53.96132813 72.23849609 53.96132813 72.23849609 53.921875 70.44140625 C53.65595856 62.01925158 53.0784307 53.9034536 51.125 45.6875 C50.96354492 45.00179932 50.80208984 44.31609863 50.63574219 43.60961914 C49.56932672 39.42626798 47.97618203 35.82250066 46 32 C46 31.34 46 30.68 46 30 C45.34 30 44.68 30 44 30 C43.773125 29.2575 43.54625 28.515 43.3125 27.75 C41.72462601 24.42302592 39.93990588 23.18783693 37 21 C35.85144531 19.824375 35.85144531 19.824375 34.6796875 18.625 C25.20411966 9.34281109 12.8664913 3.72175778 0 1 C0 0.67 0 0.34 0 0 Z " fill="#CFCFCF" transform="translate(384,68)"/>
<path d="M0 0 C1.31554985 0.4495045 2.62738358 0.90989716 3.9375 1.375 C4.66839844 1.63023438 5.39929688 1.88546875 6.15234375 2.1484375 C8 3 8 3 9 5 C9.11163974 6.91872191 9.15927305 8.84129835 9.17700195 10.76318359 C9.18983719 11.97138763 9.20267242 13.17959167 9.21589661 14.42440796 C9.22328354 15.73583771 9.23067047 17.04726746 9.23828125 18.3984375 C9.24235678 19.06459705 9.2464323 19.73075661 9.25063133 20.41710281 C9.27148764 23.94245341 9.28579167 27.46776512 9.29516602 30.99316406 C9.30623487 34.63400539 9.34064031 38.27423626 9.38033772 41.91486168 C9.40648322 44.71500789 9.41485589 47.51500811 9.41844749 50.31526566 C9.42568529 52.30949856 9.45213206 54.30363174 9.47883606 56.29769897 C9.47591049 57.51220734 9.47298492 58.7267157 9.4699707 59.97802734 C9.47877007 61.58114273 9.47877007 61.58114273 9.48774719 63.21664429 C8.87699994 66.70190647 7.75541799 67.84721463 5 70 C1.42306178 71.19231274 -1.84182553 71.1461202 -5.5625 71.125 C-6.24763672 71.12886719 -6.93277344 71.13273437 -7.63867188 71.13671875 C-12.7466133 71.12669335 -12.7466133 71.12669335 -15 70 C-14.67 69.01 -14.34 68.02 -14 67 C-13.01 67.33 -12.02 67.66 -11 68 C-8.83575223 68.1199261 -6.66753356 68.17529542 -4.5 68.1875 C-2.78296875 68.20876953 -2.78296875 68.20876953 -1.03125 68.23046875 C2.17762385 68.23549057 2.17762385 68.23549057 5 66 C6.01667485 62.94997544 6.13256433 60.86687579 6.14526367 57.67407227 C6.15164352 56.58606827 6.15802338 55.49806427 6.16459656 54.37709045 C6.16570938 53.20206467 6.1668222 52.02703888 6.16796875 50.81640625 C6.17129715 49.60935532 6.17462555 48.40230438 6.17805481 47.15867615 C6.18312102 44.604079 6.18546323 42.04947522 6.18530273 39.49487305 C6.18748924 35.58175791 6.20564858 31.66892461 6.22460938 27.75585938 C6.22754331 25.27604263 6.22952811 22.79622455 6.23046875 20.31640625 C6.23765427 19.14340469 6.24483978 17.97040314 6.25224304 16.76185608 C6.24916641 15.67069992 6.24608978 14.57954376 6.24291992 13.45532227 C6.24434494 12.49618423 6.24576996 11.5370462 6.24723816 10.54884338 C5.98688702 7.86481481 5.45260942 6.25783636 4 4 C1.9664052 2.73195434 1.9664052 2.73195434 0 2 C0 1.34 0 0.68 0 0 Z " fill="#707070" transform="translate(638,66)"/>
<path d="M0 0 C1 2 1 2 0.44262695 3.92016602 C0.12769287 4.69030029 -0.18724121 5.46043457 -0.51171875 6.25390625 C-0.85783203 7.10919922 -1.20394531 7.96449219 -1.56054688 8.84570312 C-1.93244141 9.74224609 -2.30433594 10.63878906 -2.6875 11.5625 C-3.21633789 12.86670898 -3.21633789 12.86670898 -3.75585938 14.19726562 C-6.06086458 19.84811019 -8.48825118 25.43820991 -11 31 C-11.66 31 -12.32 31 -13 31 C-13.13619751 31.9449231 -13.13619751 31.9449231 -13.27514648 32.90893555 C-14.29617025 37.26298805 -15.95366374 41.30428105 -17.59765625 45.45703125 C-17.95137802 46.35999435 -18.30509979 47.26295746 -18.66954041 48.19328308 C-19.79665096 51.06789477 -20.92949123 53.94020863 -22.0625 56.8125 C-22.82915537 58.76482504 -23.59543576 60.71729738 -24.36132812 62.66992188 C-26.23654364 67.44833264 -28.11689997 72.22469121 -30 77 C-30.99 76.67 -31.98 76.34 -33 76 C-23.53824409 50.86794093 -23.53824409 50.86794093 -17.98388672 38.72827148 C-13.92202271 29.77057595 -10.44806042 20.57351736 -6.92626953 11.39331055 C-5.96949421 8.92117863 -4.98882182 6.45946855 -4 4 C-3.01 4 -2.02 4 -1 4 C-0.67 2.68 -0.34 1.36 0 0 Z " fill="#BCBCBC" transform="translate(189,37)"/>
<path d="M0 0 C0.33 0 0.66 0 1 0 C1 19.14 1 38.28 1 58 C1.66 58 2.32 58 3 58 C3 59.98 3 61.96 3 64 C15.54 64 28.08 64 41 64 C40.92110799 57.59797162 40.92110799 57.59797162 40.81982422 51.19628906 C40.8148291 50.39416992 40.80983398 49.59205078 40.8046875 48.765625 C40.78897705 47.54020996 40.78897705 47.54020996 40.77294922 46.29003906 C41.02859847 43.71155519 41.58900769 42.16761137 43 40 C48.39708616 36.91595077 52.86613396 36.62445718 59 37 C59 37.33 59 37.66 59 38 C58.18015625 38.08636719 57.3603125 38.17273438 56.515625 38.26171875 C55.43796875 38.40222656 54.3603125 38.54273438 53.25 38.6875 C52.18265625 38.81511719 51.1153125 38.94273437 50.015625 39.07421875 C46.30824154 39.90264881 46.30824154 39.90264881 43 45 C42.67 51.6 42.34 58.2 42 65 C28.14 65 14.28 65 0 65 C0 43.55 0 22.1 0 0 Z " fill="#DBDBDB" transform="translate(530,92)"/>
<path d="M0 0 C1.15589053 3.4676716 0.84819322 4.07950857 -0.44140625 7.359375 C-0.77487061 8.22038818 -1.10833496 9.08140137 -1.4519043 9.96850586 C-1.81840088 10.88639893 -2.18489746 11.80429199 -2.5625 12.75 C-2.93093018 13.69431885 -3.29936035 14.6386377 -3.67895508 15.61157227 C-5.81393706 21.06732866 -7.99983592 26.50270101 -10.1875 31.9375 C-12.13563323 36.79448971 -14.0476816 41.6589397 -15.875 46.5625 C-16.28492187 47.65691406 -16.69484375 48.75132812 -17.1171875 49.87890625 C-18.36456154 54.28887021 -18.4486909 57.65392729 -17 62 C-14.99983534 63.20882096 -14.99983534 63.20882096 -13 64 C-15.875 63.6875 -15.875 63.6875 -19 63 C-21.94542549 58.58186176 -21.68710956 55.18175107 -21 50 C-20.20676452 47.6897275 -19.32806281 45.40795717 -18.390625 43.15234375 C-18.12393005 42.5047258 -17.85723511 41.85710785 -17.5824585 41.18986511 C-16.72920604 39.12334493 -15.86489032 37.06167261 -15 35 C-14.43945093 33.64789433 -13.8795504 32.2955196 -13.3203125 30.94287109 C-11.92397251 27.57242852 -10.51623491 24.20690724 -9.10302734 20.84350586 C-8.23468915 18.7760458 -7.36921045 16.70740334 -6.50390625 14.63867188 C-5.94548028 13.30722128 -5.38689283 11.97583841 -4.828125 10.64453125 C-4.3321582 9.46221924 -3.83619141 8.27990723 -3.32519531 7.06176758 C-2.28560894 4.65987872 -1.20582457 2.32117654 0 0 Z " fill="#D3D3D3" transform="translate(94,265)"/>
<path d="M0 0 C1.35473382 4.06420145 -0.11954718 6.50897894 -1.68359375 10.28125 C-1.97419678 11.00273224 -2.2647998 11.72421448 -2.56420898 12.46755981 C-3.51278372 14.8155529 -4.47486374 17.15774094 -5.4375 19.5 C-6.09127143 21.10958106 -6.74434681 22.71944501 -7.39672852 24.32958984 C-11.27251147 33.87408935 -15.20444982 43.39554873 -19.24609375 52.87109375 C-21.2034378 57.46038431 -23.10419738 62.07250895 -25 66.6875 C-25.30349365 67.42629395 -25.6069873 68.16508789 -25.91967773 68.92626953 C-26.61374538 70.61725585 -27.30697509 72.30858607 -28 74 C-29.18489431 70.57704649 -28.82958787 68.75360791 -27.50878906 65.41845703 C-27.15802307 64.51717072 -26.80725708 63.6158844 -26.44586182 62.68728638 C-26.05638367 61.72056 -25.66690552 60.75383362 -25.265625 59.7578125 C-24.87179626 58.75668427 -24.47796753 57.75555603 -24.07220459 56.72409058 C-22.80846609 53.52019684 -21.52911288 50.3227822 -20.25 47.125 C-19.40268918 44.97824192 -18.55632371 42.83111046 -17.7109375 40.68359375 C-16.89669216 38.62466015 -16.08161488 36.56605533 -15.265625 34.5078125 C-14.88424377 33.54513458 -14.50286255 32.58245667 -14.10992432 31.59060669 C-12.25213877 26.95046781 -10.31653776 22.43543782 -8 18 C-5.22303417 12.04814946 -2.55463169 6.05044349 0 0 Z " fill="#CBCBCB" transform="translate(179,134)"/>
<path d="M0 0 C0.99 0.495 0.99 0.495 2 1 C1.67 17.17 1.34 33.34 1 50 C16.57228376 49.76278695 16.57228376 49.76278695 32.14331055 49.45947266 C34.09942665 49.44194459 36.05556466 49.42665631 38.01171875 49.4140625 C39.02254517 49.3833667 40.03337158 49.3526709 41.0748291 49.32104492 C48.02719475 49.31586882 48.02719475 49.31586882 50.77375793 51.24740601 C54.21770247 55.13650175 54.5510264 58.31824023 54.3125 63.375 C54.26738281 64.62023437 54.22226562 65.86546875 54.17578125 67.1484375 C54.08876953 68.55996094 54.08876953 68.55996094 54 70 C53.01 70 52.02 70 51 70 C51.02320313 69.10796875 51.04640625 68.2159375 51.0703125 67.296875 C51.08835937 66.12640625 51.10640625 64.9559375 51.125 63.75 C51.14820313 62.58984375 51.17140625 61.4296875 51.1953125 60.234375 C51.00892712 57.14783309 50.78936323 55.48851839 49 53 C46.18630906 52.06210302 44.356895 51.85068018 41.43676758 51.79467773 C40.50320435 51.77449585 39.56964111 51.75431396 38.60778809 51.73352051 C37.62991333 51.71704468 36.65203857 51.70056885 35.64453125 51.68359375 C34.74327515 51.66494263 33.84201904 51.6462915 32.91345215 51.6270752 C29.54656789 51.55877308 26.17952216 51.49862718 22.8125 51.4375 C11.5203125 51.2209375 11.5203125 51.2209375 0 51 C0 34.17 0 17.34 0 0 Z " fill="#707070" transform="translate(326,196)"/>
<path d="M0 0 C0.66 0.33 1.32 0.66 2 1 C3.7566923 1.09072287 5.5168501 1.11754144 7.27587891 1.11352539 C8.3768692 1.11344986 9.4778595 1.11337433 10.61221313 1.11329651 C11.80494843 1.10813522 12.99768372 1.10297394 14.2265625 1.09765625 C15.44451508 1.0962413 16.66246765 1.09482635 17.91732788 1.09336853 C21.8199099 1.08775639 25.72243523 1.07520179 29.625 1.0625 C32.26562417 1.05748657 34.90624924 1.05292339 37.546875 1.04882812 C44.03126945 1.03778301 50.51563068 1.02103302 57 1 C57 1.33 57 1.66 57 2 C55.9985495 2.0154612 55.9985495 2.0154612 54.97686768 2.03123474 C48.03395874 2.13933708 41.09117861 2.25393227 34.1484375 2.37231445 C31.55666801 2.41565128 28.96487021 2.45732725 26.37304688 2.49731445 C22.64965272 2.55504702 18.92640096 2.6187333 15.203125 2.68359375 C13.46231659 2.70866249 13.46231659 2.70866249 11.68634033 2.73423767 C10.06511261 2.7641555 10.06511261 2.7641555 8.41113281 2.79467773 C7.46071106 2.81022202 6.51028931 2.8257663 5.53106689 2.84178162 C3.21841825 2.98634656 1.2172773 3.34999254 -1 4 C-2.79416521 11.17666083 -2.80009574 16.61583916 1 23 C1.33 23.66 1.66 24.32 2 25 C-2.63760897 23.53549191 -2.63760897 23.53549191 -4.13671875 21.3203125 C-5.95451335 16.43447544 -5.65199128 11.10832006 -5 6 C-3.60756345 3.28790232 -2.32834667 2.03730334 0 0 Z " fill="#313131" transform="translate(474,67)"/>
<path d="M0 0 C1.06359741 0.0153479 1.06359741 0.0153479 2.14868164 0.03100586 C7.1226128 0.23275212 10.75605681 1.07867884 14.90234375 3.78515625 C17.03511491 6.73473338 17.1191059 8.93041318 17.1875 12.5625 C16.24641158 16.03451558 14.87296126 19.26880464 13.4375 22.5625 C13.0765625 23.42617188 12.715625 24.28984375 12.34375 25.1796875 C11.30834298 27.64815785 10.25158823 30.10628093 9.1875 32.5625 C8.59847809 33.93729434 8.00987626 35.31226882 7.421875 36.6875 C6.81085938 38.110625 6.81085938 38.110625 6.1875 39.5625 C4.82363134 35.87424635 5.56958662 33.89846509 7.09375 30.3515625 C7.50753906 29.35382812 7.92132813 28.35609375 8.34765625 27.328125 C9.23806648 25.24098264 10.1312794 23.15503365 11.02734375 21.0703125 C11.44113281 20.07 11.85492188 19.0696875 12.28125 18.0390625 C12.66990234 17.13236816 13.05855469 16.22567383 13.45898438 15.29150391 C14.33969947 11.99236404 14.09032022 9.83839817 13.1875 6.5625 C7.64095205 2.21520566 1.01067821 1.76735797 -5.8125 2.5625 C-10.57687814 4.95983041 -10.57687814 4.95983041 -12.8125 9.5625 C-13.4725 9.5625 -14.1325 9.5625 -14.8125 9.5625 C-12.47173641 1.90181915 -7.63440216 -0.16334568 0 0 Z " fill="#D4D4D4" transform="translate(200.8125,31.4375)"/>
<path d="M0 0 C0.66 0.33 1.32 0.66 2 1 C-6.90570894 18.05916453 -18.1512405 28.79616385 -36.66015625 35.50390625 C-39.17473188 36.03704666 -40.59704714 35.83798125 -43 35 C-42.01 35 -41.02 35 -40 35 C-40 34.34 -40 33.68 -40 33 C-39.05898438 32.68546875 -38.11796875 32.3709375 -37.1484375 32.046875 C-35.90320313 31.61890625 -34.65796875 31.1909375 -33.375 30.75 C-32.14523437 30.33234375 -30.91546875 29.9146875 -29.6484375 29.484375 C-23.30739197 26.96850547 -23.30739197 26.96850547 -19 22 C-18.2575 21.566875 -17.515 21.13375 -16.75 20.6875 C-12.65306389 18.17347103 -9.5397622 15.61928661 -8 11 C-7.01 11 -6.02 11 -5 11 C-4.34 8.36 -3.68 5.72 -3 3 C-2.34 3 -1.68 3 -1 3 C-0.67 2.01 -0.34 1.02 0 0 Z " fill="#A1A1A1" transform="translate(433,159)"/>
<path d="M0 0 C0.33 0.66 0.66 1.32 1 2 C9.25 2 17.5 2 26 2 C26 2.33 26 2.66 26 3 C24.75126099 3.03758423 24.75126099 3.03758423 23.47729492 3.07592773 C20.38537167 3.17112694 17.29361148 3.27035672 14.2019043 3.37231445 C12.20696681 3.43687006 10.21188071 3.4967783 8.21679688 3.55664062 C6.96318359 3.59853516 5.70957031 3.64042969 4.41796875 3.68359375 C3.26063232 3.72025146 2.1032959 3.75690918 0.91088867 3.79467773 C-2.0643446 3.88328509 -2.0643446 3.88328509 -5 5 C-6.07462438 10.37312191 -6.99714551 16.08526697 -5.1875 21.375 C-3.92454922 23.29911164 -3.92454922 23.29911164 -1 25 C-1 25.66 -1 26.32 -1 27 C-4.80872749 26.15361611 -6.56927964 25.60300851 -8.875 22.375 C-10.665683 17.00295099 -10.76367305 12.43190125 -8.75 7.1875 C-6.41200204 2.92900372 -4.54453873 1.51484624 0 0 Z " fill="#7B7B7B" transform="translate(478,244)"/>
<path d="M0 0 C17.16 0 34.32 0 52 0 C52 0.66 52 1.32 52 2 C52.66 2.33 53.32 2.66 54 3 C53.17761841 2.90150757 53.17761841 2.90150757 52.33862305 2.80102539 C42.19166372 1.72810193 32.00509962 1.65212715 21.8125 1.4375 C19.88736208 1.39422208 17.96223174 1.35060513 16.03710938 1.30664062 C11.35815131 1.20051632 6.67911429 1.09898677 2 1 C2.00580078 1.73387939 2.01160156 2.46775879 2.01757812 3.22387695 C2.02208984 4.19800537 2.02660156 5.17213379 2.03125 6.17578125 C2.03705078 7.13653564 2.04285156 8.09729004 2.04882812 9.0871582 C1.98136378 13.11174345 1.52318116 17.01074366 1 21 C0.67 21 0.34 21 0 21 C0 14.07 0 7.14 0 0 Z " fill="#F2F2F2" transform="translate(327,92)"/>
<path d="M0 0 C3.53508103 0.29459009 4.76203444 0.74881413 7.25 3.375 C10.40276253 8.1041438 10.52711106 12.48415927 10 18 C8.06986444 23.30787278 8.06986444 23.30787278 5.21875 25.15234375 C2.58565358 26.15829784 0.55983152 26.19894293 -2.25 26.125 C-3.14203125 26.10695313 -4.0340625 26.08890625 -4.953125 26.0703125 C-5.62859375 26.04710937 -6.3040625 26.02390625 -7 26 C-7 25.67 -7 25.34 -7 25 C-3.7 24.67 -0.4 24.34 3 24 C3.33 23.01 3.66 22.02 4 21 C4.66 21 5.32 21 6 21 C6.02709444 18.91673869 6.04643873 16.83337559 6.0625 14.75 C6.07410156 13.58984375 6.08570313 12.4296875 6.09765625 11.234375 C6.01857338 7.51132855 6.01857338 7.51132855 5 4 C4.01 3.67 3.02 3.34 2 3 C2 2.34 2 1.68 2 1 C1.34 0.67 0.68 0.34 0 0 Z " fill="#EFEFEF" transform="translate(573,245)"/>
<path d="M0 0 C1.25881084 3.77643252 0.53568079 4.81662487 -0.94921875 8.4453125 C-1.38556641 9.52296875 -1.82191406 10.600625 -2.27148438 11.7109375 C-2.73876953 12.83757812 -3.20605469 13.96421875 -3.6875 15.125 C-4.13544922 16.2284375 -4.58339844 17.331875 -5.04492188 18.46875 C-6.34439569 21.65406865 -7.66705455 24.82856203 -9 28 C-9.36947754 28.89299805 -9.73895508 29.78599609 -10.11962891 30.70605469 C-10.45784668 31.50172852 -10.79606445 32.29740234 -11.14453125 33.1171875 C-11.43303955 33.80151855 -11.72154785 34.48584961 -12.01879883 35.19091797 C-13.11366269 37.2095647 -14.21958392 38.55085736 -16 40 C-18.1875 39.6875 -18.1875 39.6875 -20 39 C-19.23945312 38.33484375 -18.47890625 37.6696875 -17.6953125 36.984375 C-14.54773474 33.83901541 -13.30484202 30.39574305 -11.875 26.25 C-11.00721726 23.75922901 -10.0785294 21.41637734 -9 19 C-8.01 18.67 -7.02 18.34 -6 18 C-5.83177734 16.71222656 -5.83177734 16.71222656 -5.66015625 15.3984375 C-4.97351836 11.8636744 -3.86705313 8.92396876 -2.4375 5.625 C-1.98246094 4.56539063 -1.52742188 3.50578125 -1.05859375 2.4140625 C-0.70925781 1.61742187 -0.35992187 0.82078125 0 0 Z " fill="#E5E5E5" transform="translate(116,289)"/>
<path d="M0 0 C1.4456301 4.33689029 -0.46076843 7.33946693 -2.125 11.375 C-2.78153656 13.01030165 -3.43778491 14.64571903 -4.09375 16.28125 C-4.41988281 17.085625 -4.74601563 17.89 -5.08203125 18.71875 C-6.30400398 21.75548223 -7.46590283 24.81379465 -8.625 27.875 C-10.9614671 33.96844409 -13.45556727 39.99080782 -16 46 C-16.99 45.67 -17.98 45.34 -19 45 C-18.67314209 44.24082275 -18.34628418 43.48164551 -18.00952148 42.69946289 C-11.90332577 28.50822167 -5.80841106 14.31650613 0 0 Z " fill="#DDDDDD" transform="translate(156,113)"/>
<path d="M0 0 C-8.98113613 7.97032434 -30.97941145 4.10803424 -42.375 4.0625 C-44.57551981 4.05747376 -46.77604074 4.05291285 -48.9765625 4.04882812 C-54.31773303 4.03791436 -59.65886117 4.0212658 -65 4 C-65 3.67 -65 3.34 -65 3 C-63.28623169 2.970271 -63.28623169 2.970271 -61.5378418 2.93994141 C-57.20058196 2.86247647 -52.86359816 2.77400891 -48.52661133 2.68261719 C-46.66794376 2.64489722 -44.80921716 2.6099585 -42.95043945 2.578125 C-31.50731253 2.37992199 -20.24888773 1.77379599 -8.88208008 0.41552734 C-5.86825479 0.09293564 -3.02222459 -0.09207025 0 0 Z " fill="#3B3B3B" transform="translate(393,193)"/>
<path d="M0 0 C0.75042068 0.00424484 1.50084137 0.00848969 2.27400208 0.01286316 C4.66871151 0.02964425 7.06257659 0.06729385 9.45703125 0.10546875 C11.08136805 0.1205164 12.70571805 0.13420466 14.33007812 0.14648438 C18.31022073 0.1795457 22.28973288 0.23132281 26.26953125 0.29296875 C26.26953125 0.62296875 26.26953125 0.95296875 26.26953125 1.29296875 C25.28557373 1.30755127 24.30161621 1.32213379 23.2878418 1.3371582 C19.63659351 1.39513873 15.98596214 1.4723706 12.33520508 1.55541992 C10.75522882 1.58867063 9.17513373 1.61670221 7.5949707 1.6394043 C5.32321546 1.67294891 3.05254922 1.72526102 0.78125 1.78125 C0.07489914 1.78763992 -0.63145172 1.79402985 -1.35920715 1.8006134 C-4.20826564 1.88600066 -6.25409171 1.97232106 -8.65429688 3.58789062 C-10.53956003 6.57488651 -10.59031297 10.0385801 -10.91796875 13.48046875 C-10.99982422 14.23005859 -11.08167969 14.97964844 -11.16601562 15.75195312 C-11.36587659 17.59772793 -11.54973413 19.44522308 -11.73046875 21.29296875 C-14.19415422 16.96434208 -14.30722375 13.1779088 -13.73046875 8.29296875 C-12.41796875 5.41796875 -12.41796875 5.41796875 -10.73046875 3.29296875 C-10.36010498 2.76018311 -9.98974121 2.22739746 -9.6081543 1.6784668 C-6.66238608 -0.49514322 -3.51512844 -0.07474032 0 0 Z " fill="#A9A9A9" transform="translate(273.73046875,244.70703125)"/>
<path d="M0 0 C-0.639375 0.268125 -1.27875 0.53625 -1.9375 0.8125 C-4.33131686 1.88667752 -4.33131686 1.88667752 -5 5 C-5.66 5 -6.32 5 -7 5 C-6.67 10.61 -6.34 16.22 -6 22 C-5.34 22 -4.68 22 -4 22 C-4 22.66 -4 23.32 -4 24 C-3.34 24.33 -2.68 24.66 -2 25 C-4.3125 24.8125 -4.3125 24.8125 -7 24 C-9.9971164 20.12429629 -10.36099044 17.20308427 -10.25 12.375 C-10.23453125 11.24835938 -10.2190625 10.12171875 -10.203125 8.9609375 C-9.97272732 5.60244827 -9.71110242 3.68570591 -7.25 1.3125 C-4.61322124 -0.22562095 -3.00250341 -0.25020862 0 0 Z " fill="#A0A0A0" transform="translate(271,67)"/>
<path d="M0 0 C1.32808965 3.62510005 0.65424728 5.43425336 -0.9375 8.875 C-3.13149093 14.01196498 -3.7972313 17.60830609 -2 23 C0.00016466 24.20882096 0.00016466 24.20882096 2 25 C-0.875 24.6875 -0.875 24.6875 -4 24 C-6.85386427 19.71920359 -6.62119801 16.02736992 -6 11 C-4.9320134 7.8424744 -3.58490717 4.92924808 -2 2 C-1.34 2 -0.68 2 0 2 C0 1.34 0 0.68 0 0 Z " fill="#949494" transform="translate(79,304)"/>
<path d="M0 0 C7.27619742 8.91084999 5.20039443 22.15643496 5 33 C4.34 33 3.68 33 3 33 C2.95101563 31.74445313 2.90203125 30.48890625 2.8515625 29.1953125 C2.41112632 17.45754812 2.41112632 17.45754812 0.40234375 5.91015625 C0 4 0 4 0 0 Z " fill="#DEDEDE" transform="translate(435,109)"/>
<path d="M0 0 C1 2 1 2 0.44262695 3.92016602 C0.12769287 4.69030029 -0.18724121 5.46043457 -0.51171875 6.25390625 C-0.85783203 7.10919922 -1.20394531 7.96449219 -1.56054688 8.84570312 C-1.93244141 9.74224609 -2.30433594 10.63878906 -2.6875 11.5625 C-3.21633789 12.86670898 -3.21633789 12.86670898 -3.75585938 14.19726562 C-6.06086458 19.84811019 -8.48825118 25.43820991 -11 31 C-11.33 30.34 -11.66 29.68 -12 29 C-11.27196068 27.01443821 -10.53751571 25.03070081 -9.75390625 23.06640625 C-8.89375797 20.91659611 -8.89375797 20.91659611 -8.5625 18.1875 C-7.6904164 13.24569291 -5.78874045 8.67568433 -4 4 C-3.01 4 -2.02 4 -1 4 C-0.67 2.68 -0.34 1.36 0 0 Z " fill="#787878" transform="translate(189,37)"/>
<path d="M0 0 C1.51626313 3.89361396 0.41560805 6.23611926 -1.125 10 C-1.58648437 11.14082031 -2.04796875 12.28164062 -2.5234375 13.45703125 C-3.01070312 14.62621094 -3.49796875 15.79539063 -4 17 C-4.46664062 18.13824219 -4.93328125 19.27648437 -5.4140625 20.44921875 C-8.66637931 28.33275862 -8.66637931 28.33275862 -10 31 C-10.66 31 -11.32 31 -12 31 C-11.34692236 27.12945021 -10.21092807 23.71773141 -8.75 20.078125 C-8.3065625 18.97082031 -7.863125 17.86351562 -7.40625 16.72265625 C-6.9421875 15.57667969 -6.478125 14.43070313 -6 13.25 C-5.5359375 12.08855469 -5.071875 10.92710937 -4.59375 9.73046875 C-1.13576321 1.13576321 -1.13576321 1.13576321 0 0 Z " fill="#D4D4D4" transform="translate(125,189)"/>
<path d="M0 0 C1.2085572 3.62567161 0.71593339 4.28623649 -0.80078125 7.67578125 C-1.20103516 8.58650391 -1.60128906 9.49722656 -2.01367188 10.43554688 C-2.44228516 11.38494141 -2.87089844 12.33433594 -3.3125 13.3125 C-7.00438551 21.52041805 -7.00438551 21.52041805 -10 30 C-10.66 30 -11.32 30 -12 30 C-10.24271383 23.33904861 -7.90945555 16.92210606 -5.4375 10.5 C-5.13255615 9.69836426 -4.8276123 8.89672852 -4.51342773 8.07080078 C-4.21895752 7.31524902 -3.9244873 6.55969727 -3.62109375 5.78125 C-3.3573999 5.10126953 -3.09370605 4.42128906 -2.82202148 3.72070312 C-2 2 -2 2 0 0 Z " fill="#DBDBDB" transform="translate(192,103)"/>
<path d="M0 0 C0.33 0.66 0.66 1.32 1 2 C0.690625 2.86625 0.38125 3.7325 0.0625 4.625 C-1.62980865 10.00056867 -1.78535629 14.15612001 0.4375 19.375 C1.2109375 20.674375 1.2109375 20.674375 2 22 C2.33 22.66 2.66 23.32 3 24 C-1.63494296 22.5363338 -1.63494296 22.5363338 -3.140625 20.32421875 C-4.24989454 17.32414886 -4.33805724 14.75804897 -4.375 11.5625 C-4.40335937 10.45003906 -4.43171875 9.33757812 -4.4609375 8.19140625 C-3.91209289 4.391355 -2.60397612 2.75321585 0 0 Z " fill="#C5C5C5" transform="translate(473,68)"/>
<path d="M0 0 C0.75 1.75 0.75 1.75 1 4 C-1.21867135 6.77333918 -2.60620325 7.86873442 -6 9 C-8.53257899 9.09599519 -11.03092392 9.13937035 -13.5625 9.125 C-14.24763672 9.12886719 -14.93277344 9.13273438 -15.63867188 9.13671875 C-20.7466133 9.12669335 -20.7466133 9.12669335 -23 8 C-22.67 7.01 -22.34 6.02 -22 5 C-21.01 5.33 -20.02 5.66 -19 6 C-16.8783532 6.14554833 -14.75143294 6.22080412 -12.625 6.25 C-11.50351562 6.27578125 -10.38203125 6.3015625 -9.2265625 6.328125 C-5.65576095 5.96499264 -3.81773899 5.19271325 -1 3 C-0.67 2.01 -0.34 1.02 0 0 Z " fill="#A7A7A7" transform="translate(646,128)"/>
<path d="M0 0 C1.32612202 3.97836607 0.29272141 5.36685775 -1.30859375 9.19921875 C-1.80810547 10.40771484 -2.30761719 11.61621094 -2.82226562 12.86132812 C-3.36047264 14.13680504 -3.89888679 15.41219457 -4.4375 16.6875 C-4.9728762 17.97424733 -5.50739212 19.26135295 -6.04101562 20.54882812 C-7.35223937 23.70285282 -8.67220398 26.85292431 -10 30 C-10.66 30 -11.32 30 -12 30 C-9.88685027 23.38808163 -7.46722928 16.93784416 -4.875 10.5 C-4.51535156 9.59507813 -4.15570313 8.69015625 -3.78515625 7.7578125 C-3.26888672 6.47003906 -3.26888672 6.47003906 -2.7421875 5.15625 C-2.27594971 3.99319336 -2.27594971 3.99319336 -1.80029297 2.80664062 C-1 1 -1 1 0 0 Z " fill="#DBDBDB" transform="translate(180,55)"/>
<path d="M0 0 C1.08335233 3.25005699 0.9100037 4.27395738 0.125 7.5 C-0.05804688 8.2734375 -0.24109375 9.046875 -0.4296875 9.84375 C-0.88910067 11.58070939 -1.43183731 13.29551194 -2 15 C-2.99 15.495 -2.99 15.495 -4 16 C-4.72904086 17.64034193 -5.38655243 19.31301918 -6 21 C-7.77777778 25.88888889 -7.77777778 25.88888889 -10 27 C-7.97607539 20.72555221 -5.73023007 14.57015561 -3.3125 8.4375 C-2.83200195 7.21063477 -2.83200195 7.21063477 -2.34179688 5.95898438 C-1.56321746 3.97186378 -0.78190155 1.98581573 0 0 Z " fill="#838383" transform="translate(150,201)"/>
<path d="M0 0 C0.66 0.33 1.32 0.66 2 1 C-4.14348794 5.5507318 -10.47300597 9.28123758 -18 11 C-20.32421875 10.59765625 -20.32421875 10.59765625 -22 10 C-21.01 10 -20.02 10 -19 10 C-19 9.34 -19 8.68 -19 8 C-18.04738281 7.67386719 -17.09476562 7.34773437 -16.11328125 7.01171875 C-14.84625231 6.57060497 -13.57933087 6.12918229 -12.3125 5.6875 C-11.07113281 5.25824219 -9.82976562 4.82898438 -8.55078125 4.38671875 C-5.02688457 3.13003691 -5.02688457 3.13003691 -2.16796875 1.26953125 C-1.45253906 0.85058594 -0.73710937 0.43164062 0 0 Z " fill="#B7B7B7" transform="translate(412,184)"/>
<path d="M0 0 C4.875 3.75 4.875 3.75 6 6 C6.07116382 8.37402501 6.08409085 10.75000677 6.0625 13.125 C6.05347656 14.40632813 6.04445313 15.68765625 6.03515625 17.0078125 C6.02355469 17.99523437 6.01195312 18.98265625 6 20 C5.01 20 4.02 20 3 20 C3.03480469 19.11957031 3.06960938 18.23914063 3.10546875 17.33203125 C3.13253906 16.17058594 3.15960938 15.00914062 3.1875 13.8125 C3.22230469 12.66394531 3.25710938 11.51539063 3.29296875 10.33203125 C2.97400128 6.70430793 2.01145291 4.97230443 0 2 C0 1.34 0 0.68 0 0 Z " fill="#EFEFEF" transform="translate(374,246)"/>
<path d="M0 0 C0.99 0.66 1.98 1.32 3 2 C2.05023017 4.64920076 1.09072092 7.29411973 0.125 9.9375 C-0.14441406 10.69224609 -0.41382812 11.44699219 -0.69140625 12.22460938 C-2.7734375 17.88671875 -2.7734375 17.88671875 -5 19 C-4.5464821 11.97047248 -2.87940913 6.4150557 0 0 Z " fill="#B1B1B1" transform="translate(112,219)"/>
<path d="M0 0 C3.77610811 2.51740541 4.2420364 4.89808494 6 9 C6.99 9.66 7.98 10.32 9 11 C9 11.66 9 12.32 9 13 C5.05554225 12.12345383 3.40934245 11.61401367 1.125 8.1875 C0.06177558 5.17503081 -0.27813457 3.1521918 0 0 Z " fill="#DEDEDE" transform="translate(468,258)"/>
<path d="M0 0 C1.35304209 4.05912626 0.15216503 5.77149591 -1.4375 9.6875 C-2.14712891 11.45673828 -2.14712891 11.45673828 -2.87109375 13.26171875 C-3.24363281 14.16535156 -3.61617188 15.06898438 -4 16 C-4.33 16 -4.66 16 -5 16 C-5.34615998 10.34605369 -4.43425238 6.96993194 -2 2 C-1.34 2 -0.68 2 0 2 C0 1.34 0 0.68 0 0 Z " fill="#9A9A9A" transform="translate(131,177)"/>
<path d="M0 0 C1.60495567 0.11442461 3.20898119 0.24194694 4.8125 0.375 C5.70582031 0.44460937 6.59914063 0.51421875 7.51953125 0.5859375 C10 1 10 1 13 3 C13 3.66 13 4.32 13 5 C13.639375 5.28875 14.27875 5.5775 14.9375 5.875 C17 7 17 7 18 9 C15.83726156 7.95868149 13.8213867 6.88262555 11.8125 5.5625 C8.04522372 3.46956873 4.10781007 2.2618763 0 1 C0 0.67 0 0.34 0 0 Z " fill="#B1B1B1" transform="translate(381,95)"/>
<path d="M0 0 C0.33 0 0.66 0 1 0 C1 1.98 1 3.96 1 6 C-2.21182149 7.90608098 -4.53882603 8.22266247 -8.25 8.125 C-9.14203125 8.10695313 -10.0340625 8.08890625 -10.953125 8.0703125 C-11.96632813 8.03550781 -11.96632813 8.03550781 -13 8 C-13 7.67 -13 7.34 -13 7 C-9.7 6.67 -6.4 6.34 -3 6 C-2.67 5.01 -2.34 4.02 -2 3 C-1.34 3 -0.68 3 0 3 C0 2.01 0 1.02 0 0 Z " fill="#D3D3D3" transform="translate(579,263)"/>
<path d="M0 0 C0.66 0.33 1.32 0.66 2 1 C0.35 5.29 -1.3 9.58 -3 14 C-3.66 14 -4.32 14 -5 14 C-4.34580901 8.93001981 -2.1453591 4.58009223 0 0 Z " fill="#E2E2E2" transform="translate(118,206)"/>
<path d="M0 0 C0.66 0.33 1.32 0.66 2 1 C-0.64 5.62 -3.28 10.24 -6 15 C-7.21386936 11.35839192 -6.6674695 10.66834531 -5.0625 7.3125 C-4.68222656 6.50425781 -4.30195313 5.69601563 -3.91015625 4.86328125 C-3.60980469 4.24839844 -3.30945313 3.63351563 -3 3 C-2.34 3 -1.68 3 -1 3 C-0.67 2.01 -0.34 1.02 0 0 Z " fill="#B8B8B8" transform="translate(433,159)"/>
<path d="M0 0 C1.25541557 3.76624671 0.37061958 5.37188934 -1 9 C-1.66 9 -2.32 9 -3 9 C-3.33 10.65 -3.66 12.3 -4 14 C-5.16835309 10.49494073 -4.75193262 9.33566718 -3.6875 5.875 C-3.42324219 4.98554688 -3.15898437 4.09609375 -2.88671875 3.1796875 C-2 1 -2 1 0 0 Z " fill="#9E9E9E" transform="translate(409,142)"/>
<path d="M0 0 C1 2 1 2 0.4375 4.3125 C-1.52329094 7.97832654 -3.57932744 9.6264721 -7 12 C-7.99 11.67 -8.98 11.34 -10 11 C-9.21625 10.773125 -8.4325 10.54625 -7.625 10.3125 C-4.81763879 9.24617655 -4.81763879 9.24617655 -3.875 6.625 C-3.441875 5.325625 -3.441875 5.325625 -3 4 C-2.04175747 2.63634717 -1.05278825 1.29205831 0 0 Z " fill="#D5D5D5" transform="translate(404,151)"/>
<path d="M0 0 C0.66 0 1.32 0 2 0 C1.50341703 5.66104589 0.45489316 9.87674471 -2 15 C-3.53760842 11.92478317 -2.36599236 9.65324882 -1.5625 6.375 C-1.27503906 5.18648437 -0.98757813 3.99796875 -0.69140625 2.7734375 C-0.46324219 1.85820312 -0.23507812 0.94296875 0 0 Z " fill="#D6D6D6" transform="translate(437,143)"/>
<path d="M0 0 C0.66 0 1.32 0 2 0 C1.125 6.75 1.125 6.75 0 9 C-0.66 9 -1.32 9 -2 9 C-2.66 10.32 -3.32 11.64 -4 13 C-3.27991594 8.39146203 -1.68704061 4.32762591 0 0 Z " fill="#8B8B8B" transform="translate(204,69)"/>
<path d="M0 0 C0.66 0 1.32 0 2 0 C2.49180328 6.39344262 2.49180328 6.39344262 0.125 9.3125 C-0.57625 9.869375 -1.2775 10.42625 -2 11 C-2.66 11.66 -3.32 12.32 -4 13 C-3.27991594 8.39146203 -1.68704061 4.32762591 0 0 Z " fill="#616161" transform="translate(126,259)"/>
<path d="M0 0 C0.33 0.66 0.66 1.32 1 2 C0.09239638 4.59732225 -0.87067892 7.09450975 -1.9375 9.625 C-2.22818359 10.33140625 -2.51886719 11.0378125 -2.81835938 11.765625 C-3.53867488 13.51327573 -4.26845694 15.25701915 -5 17 C-5.33 17 -5.66 17 -6 17 C-6.64366639 11.85066889 -4.37721719 8.36401549 -2 4 C-1.32870775 2.66898951 -0.6607077 1.33629621 0 0 Z " fill="#E7E7E7" transform="translate(146,216)"/>
<path d="M0 0 C0.33 0 0.66 0 1 0 C1.17835515 4.54805635 0.99785435 7.8794254 -1 12 C-1.99 12 -2.98 12 -4 12 C-2.66666667 8 -1.33333333 4 0 0 Z " fill="#B0B0B0" transform="translate(139,229)"/>
<path d="M0 0 C1.13643966 3.40931897 0.86747764 4.00335456 -0.4375 7.1875 C-0.72496094 7.90292969 -1.01242188 8.61835937 -1.30859375 9.35546875 C-1.53675781 9.89816406 -1.76492187 10.44085938 -2 11 C-2.99 11 -3.98 11 -5 11 C-4.55123384 9.35153231 -4.09069512 7.70626545 -3.625 6.0625 C-3.36976563 5.14597656 -3.11453125 4.22945313 -2.8515625 3.28515625 C-2 1 -2 1 0 0 Z " fill="#A9A9A9" transform="translate(196,93)"/>
<path d="M0 0 C0.33 0 0.66 0 1 0 C1.30192308 7.85 1.30192308 7.85 -1 11 C-1.99 11.33 -2.98 11.66 -4 12 C-3.52309796 10.37433394 -3.04340334 8.74948689 -2.5625 7.125 C-2.29566406 6.22007812 -2.02882813 5.31515625 -1.75390625 4.3828125 C-1 2 -1 2 0 0 Z " fill="#CCCCCC" transform="translate(107,308)"/>
<path d="M0 0 C2.58160408 1.00546685 3.8007222 1.68462642 5.30078125 4.05859375 C5.63464844 4.84363281 5.96851563 5.62867187 6.3125 6.4375 C6.65925781 7.21996094 7.00601562 8.00242187 7.36328125 8.80859375 C8 11 8 11 7 14 C6.33333333 12.66666667 5.66666667 11.33333333 5 10 C4.46375 8.96875 3.9275 7.9375 3.375 6.875 C2 4 2 4 2 2 C1.34 2 0.68 2 0 2 C0 1.34 0 0.68 0 0 Z " fill="#C4C4C4" transform="translate(428,96)"/>
<path d="M0 0 C4.29 0 8.58 0 13 0 C13 0.66 13 1.32 13 2 C13.66 2.33 14.32 2.66 15 3 C13.24929483 2.88529863 11.49942464 2.75780972 9.75 2.625 C8.77546875 2.55539063 7.8009375 2.48578125 6.796875 2.4140625 C4 2 4 2 0 0 Z " fill="#AEAEAE" transform="translate(366,92)"/>
<path d="M0 0 C0.33 0 0.66 0 1 0 C1 2.31 1 4.62 1 7 C1.99 7.33 2.98 7.66 4 8 C4 8.66 4 9.32 4 10 C5.32 10.66 6.64 11.32 8 12 C5.125 11.6875 5.125 11.6875 2 11 C-0.67927341 6.98108988 -0.15601248 4.75838077 0 0 Z " fill="#B9B9B9" transform="translate(73,317)"/>
<path d="M0 0 C2.64 0.99 5.28 1.98 8 3 C8.33 5.31 8.66 7.62 9 10 C8.1646875 8.8553125 8.1646875 8.8553125 7.3125 7.6875 C5.02757355 5.03204493 2.9864388 3.7420893 0 2 C0 1.34 0 0.68 0 0 Z " fill="#DBDBDB" transform="translate(638,66)"/>
<path d="M0 0 C1.39195915 4.17587745 -0.17676781 6.13474776 -2 10 C-2.66 10 -3.32 10 -4 10 C-4.33 10.66 -4.66 11.32 -5 12 C-4.125 6.25 -4.125 6.25 -3 4 C-2.34 4 -1.68 4 -1 4 C-0.67 2.68 -0.34 1.36 0 0 Z " fill="#C1C1C1" transform="translate(83,294)"/>
<path d="M0 0 C2.71675995 0.36712972 4.61063713 0.72744599 6.875 2.3125 C8 4 8 4 7.6875 6.1875 C7.460625 6.785625 7.23375 7.38375 7 8 C6.731875 7.360625 6.46375 6.72125 6.1875 6.0625 C5.11332248 3.66868314 5.11332248 3.66868314 2 3 C2 2.34 2 1.68 2 1 C1.34 0.67 0.68 0.34 0 0 Z " fill="#D8D8D8" transform="translate(573,245)"/>
<path d="M0 0 C1.43088528 2.86177057 0.59991697 4.93375773 0 8 C-0.66 8 -1.32 8 -2 8 C-2.66 9.98 -3.32 11.96 -4 14 C-5.305239 10.08428299 -4.32239848 8.96107003 -2.5625 5.3125 C-2.08941406 4.31863281 -1.61632812 3.32476562 -1.12890625 2.30078125 C-0.75636719 1.54152344 -0.38382812 0.78226563 0 0 Z " fill="#DDDDDD" transform="translate(107,233)"/>
<path d="M0 0 C3.81684226 1.55500981 6.19195732 4.03595495 9 7 C8.01 7.495 8.01 7.495 7 8 C3.75700849 5.61042731 1.49097658 3.7952131 0 0 Z " fill="#C2C2C2" transform="translate(413,79)"/>
<path d="M0 0 C2 4 2 4 1.125 6.75 C0.75375 7.4925 0.3825 8.235 0 9 C-0.99 9 -1.98 9 -3 9 C-2.01 6.03 -1.02 3.06 0 0 Z " fill="#969696" transform="translate(118,280)"/>
<path d="M0 0 C-2.71182212 2.60334924 -3.89133813 2.99456691 -7.75 3.1875 C-8.8225 3.125625 -9.895 3.06375 -11 3 C-11 2.34 -11 1.68 -11 1 C-7.27569643 0.30710631 -3.78916254 -0.11144596 0 0 Z " fill="#737373" transform="translate(393,193)"/>
<path d="M0 0 C0.99 0.33 1.98 0.66 3 1 C2.34 1 1.68 1 1 1 C0.67 1.99 0.34 2.98 0 4 C-1.32303717 4.3721042 -2.65737935 4.70630173 -4 5 C-4.33 5.66 -4.66 6.32 -5 7 C-4.6189482 4.23737447 -4.16402868 3.15856106 -2.125 1.1875 C-1.42375 0.795625 -0.7225 0.40375 0 0 Z " fill="#D2D2D2" transform="translate(475,245)"/>
<path d="M0 0 C0.99 0 1.98 0 3 0 C2.34 2.31 1.68 4.62 1 7 C0.01 6.67 -0.98 6.34 -2 6 C-1.34 4.02 -0.68 2.04 0 0 Z " fill="#919191" transform="translate(158,107)"/>
<path d="M0 0 C0.33 0 0.66 0 1 0 C1 1.65 1 3.3 1 5 C0.34 5 -0.32 5 -1 5 C-1.33 6.32 -1.66 7.64 -2 9 C-2.66 8.67 -3.32 8.34 -4 8 C-2.68 5.36 -1.36 2.72 0 0 Z " fill="#E7E7E7" transform="translate(84,289)"/>
<path d="M0 0 C1.39195915 4.17587745 -0.17676781 6.13474776 -2 10 C-3.09658936 6.71023192 -2.79953138 5.28696233 -2 2 C-1.34 2 -0.68 2 0 2 C0 1.34 0 0.68 0 0 Z " fill="#989898" transform="translate(110,228)"/>
</svg>
