<svg width="24" height="19" viewBox="0 0 24 19" fill="none" xmlns="http://www.w3.org/2000/svg">
<path d="M22.5 0H1.5C1.10218 0 0.720644 0.176628 0.43934 0.491027C0.158035 0.805426 0 1.23184 0 1.67647L0 17.3235C0 17.7682 0.158035 18.1946 0.43934 18.509C0.720644 18.8234 1.10218 19 1.5 19H22.5C22.8978 19 23.2794 18.8234 23.5607 18.509C23.842 18.1946 24 17.7682 24 17.3235V1.67647C24 1.23184 23.842 0.805426 23.5607 0.491027C23.2794 0.176628 22.8978 0 22.5 0ZM22.18 1.11765L12 9.91353L1.82 1.11765H22.18ZM1 17.0944V1.82176L8.705 8.47735L1 17.0944ZM1.705 17.8824L9.5 9.17029L11.69 11.0647C11.7774 11.1399 11.8847 11.1807 11.995 11.1807C12.1053 11.1807 12.2126 11.1399 12.3 11.0647L14.5 9.17029L22.295 17.8824H1.705ZM23 17.0944L15.295 8.47735L23 1.82176V17.0944Z" fill="white"/>
</svg>
